<svg xmlns="http://www.w3.org/2000/svg" xmlns:xlink="http://www.w3.org/1999/xlink" width="600" zoomAndPan="magnify" viewBox="0 0 450 44.999999" height="60" preserveAspectRatio="xMidYMid meet" version="1.0"><defs><clipPath id="2a4e91a7b5"><path d="M 81 0 L 164 0 L 164 45 L 81 45 Z M 81 0 " clip-rule="nonzero"/></clipPath><clipPath id="697aff17ad"><path d="M 82.539062 70.566406 L 80.960938 -19.421875 L 164.199219 -20.878906 L 165.777344 69.105469 Z M 82.539062 70.566406 " clip-rule="nonzero"/></clipPath><clipPath id="55f385fffe"><path d="M 82.539062 70.566406 L 80.960938 -19.421875 L 164.199219 -20.878906 L 165.777344 69.105469 Z M 82.539062 70.566406 " clip-rule="nonzero"/></clipPath><clipPath id="48a93402a4"><path d="M 205 0 L 288 0 L 288 45 L 205 45 Z M 205 0 " clip-rule="nonzero"/></clipPath><clipPath id="5ec860f734"><path d="M 206.484375 90.226562 L 204.90625 0.238281 L 288.144531 -1.21875 L 289.71875 88.765625 Z M 206.484375 90.226562 " clip-rule="nonzero"/></clipPath><clipPath id="90b2f25ae6"><path d="M 206.484375 90.226562 L 204.90625 0.238281 L 288.144531 -1.21875 L 289.71875 88.765625 Z M 206.484375 90.226562 " clip-rule="nonzero"/></clipPath><clipPath id="95bdd92a1c"><path d="M 93 1 L 149 1 L 149 45 L 93 45 Z M 93 1 " clip-rule="nonzero"/></clipPath><clipPath id="f13107c1c0"><path d="M 92.441406 2.390625 L 146.976562 -1.875 L 150.546875 43.78125 L 96.011719 48.046875 Z M 92.441406 2.390625 " clip-rule="nonzero"/></clipPath><clipPath id="4486bd22cd"><path d="M 143.074219 11.960938 C 145.804688 11.902344 148.101562 13.605469 148.300781 16.496094 C 148.488281 19.246094 146.425781 21.640625 143.664062 21.855469 C 141.371094 22.3125 136.980469 24.222656 139.109375 27.347656 C 140.136719 28.859375 141.378906 29.574219 141.578125 31.554688 C 141.902344 34.808594 138.960938 38.082031 135.59375 37.539062 C 134.648438 37.386719 133.738281 37 132.835938 36.707031 C 128.835938 35.386719 124.597656 36.359375 121.324219 38.960938 C 118.5625 41.144531 116.664062 44.363281 113.199219 45.570312 C 109.515625 46.851562 105.289062 46.34375 102.105469 44.050781 C 99.382812 42.058594 97.484375 38.882812 97.25 35.523438 C 97 31.984375 98.511719 28.625 98.898438 25.148438 C 99.113281 23.105469 98.945312 20.925781 98.070312 19.039062 C 97.183594 17.167969 95.464844 16.089844 94.371094 14.386719 C 93.65625 13.285156 93.191406 11.980469 93.082031 10.578125 C 92.726562 6.054688 96.101562 2.105469 100.628906 1.75 C 101.902344 1.652344 103.203125 1.855469 104.386719 2.335938 C 106.492188 3.207031 107.894531 5.078125 109.992188 5.988281 C 113.503906 7.515625 116.367188 6.273438 119.816406 5.375 C 122.003906 4.796875 124.835938 4.605469 126.960938 5.542969 C 128.726562 6.3125 129.84375 8.109375 130.84375 9.664062 C 133.605469 13.914062 138.628906 12.085938 142.917969 11.957031 C 142.988281 11.953125 143.03125 11.964844 143.074219 11.960938 Z M 143.074219 11.960938 " clip-rule="nonzero"/></clipPath><clipPath id="bda36b16aa"><path d="M 214.875 20.757812 L 238.125 20.757812 L 238.125 42.507812 L 214.875 42.507812 Z M 214.875 20.757812 " clip-rule="nonzero"/></clipPath><clipPath id="28e0e3cbac"><path d="M 71.730469 14.117188 L 90.480469 14.117188 L 90.480469 31.367188 L 71.730469 31.367188 Z M 71.730469 14.117188 " clip-rule="nonzero"/></clipPath><clipPath id="e8693afb5a"><path d="M 135.886719 30.4375 L 162.136719 30.4375 L 162.136719 45 L 135.886719 45 Z M 135.886719 30.4375 " clip-rule="nonzero"/></clipPath><clipPath id="64c9a53a78"><path d="M 208 0 L 236 0 L 236 15 L 208 15 Z M 208 0 " clip-rule="nonzero"/></clipPath><clipPath id="1a77918038"><path d="M 207.835938 12.167969 L 211.34375 -11.574219 L 237.3125 -7.734375 L 233.800781 16.007812 Z M 207.835938 12.167969 " clip-rule="nonzero"/></clipPath><clipPath id="25a8cbe790"><path d="M 207.835938 12.167969 L 211.34375 -11.574219 L 237.3125 -7.734375 L 233.800781 16.007812 Z M 207.835938 12.167969 " clip-rule="nonzero"/></clipPath><clipPath id="309975470b"><path d="M 149 0 L 197 0 L 197 23 L 149 23 Z M 149 0 " clip-rule="nonzero"/></clipPath><clipPath id="0ee0d8d42a"><path d="M 177.972656 -31.207031 L 208.164062 9.804688 L 173.832031 35.078125 L 143.640625 -5.933594 Z M 177.972656 -31.207031 " clip-rule="nonzero"/></clipPath><clipPath id="b1053dcd91"><path d="M 195.308594 13.523438 C 196.699219 15.652344 196.480469 18.304688 194.296875 19.882812 C 192.214844 21.382812 189.308594 20.933594 187.777344 18.855469 C 186.289062 17.265625 182.621094 14.734375 181.195312 17.957031 C 180.507812 19.511719 180.554688 20.84375 179.085938 21.972656 C 176.671875 23.832031 172.636719 23.117188 171.414062 20.1875 C 171.066406 19.367188 170.925781 18.453125 170.714844 17.597656 C 169.792969 13.785156 166.9375 10.917969 163.269531 9.609375 C 160.1875 8.5 156.707031 8.582031 154.050781 6.4375 C 151.226562 4.15625 149.546875 0.5625 149.796875 -3.078125 C 150.03125 -6.210938 151.609375 -9.273438 154.148438 -11.109375 C 156.824219 -13.046875 160.222656 -13.503906 163.160156 -14.914062 C 164.878906 -15.746094 166.519531 -16.949219 167.582031 -18.570312 C 168.625 -20.191406 168.632812 -22.078125 169.4375 -23.78125 C 169.957031 -24.890625 170.761719 -25.898438 171.816406 -26.675781 C 175.214844 -29.179688 180 -28.453125 182.503906 -25.050781 C 183.210938 -24.089844 183.6875 -22.960938 183.890625 -21.789062 C 184.238281 -19.699219 183.449219 -17.667969 183.757812 -15.5625 C 184.28125 -12.039062 186.671875 -10.386719 189.078125 -8.101562 C 190.609375 -6.65625 192.15625 -4.511719 192.460938 -2.371094 C 192.71875 -0.597656 191.847656 1.171875 191.109375 2.726562 C 189.109375 7 193.023438 10.070312 195.234375 13.398438 C 195.273438 13.453125 195.285156 13.492188 195.308594 13.523438 Z M 195.308594 13.523438 " clip-rule="nonzero"/></clipPath><clipPath id="0412bde769"><path d="M 81 0 L 116 0 L 116 13 L 81 13 Z M 81 0 " clip-rule="nonzero"/></clipPath><clipPath id="6da01e67c8"><path d="M 78 1.34375 L 94.863281 -23.46875 L 121.535156 -5.335938 L 104.671875 19.472656 Z M 78 1.34375 " clip-rule="nonzero"/></clipPath><clipPath id="aa73fd8c57"><path d="M 78 1.34375 L 94.863281 -23.46875 L 121.535156 -5.335938 L 104.671875 19.472656 Z M 78 1.34375 " clip-rule="nonzero"/></clipPath><clipPath id="01294b604e"><path d="M 272 0 L 366 0 L 366 45 L 272 45 Z M 272 0 " clip-rule="nonzero"/></clipPath><clipPath id="39729bded3"><path d="M 273.179688 89.753906 L 271.378906 -12.980469 L 366.613281 -14.652344 L 368.414062 88.082031 Z M 273.179688 89.753906 " clip-rule="nonzero"/></clipPath><clipPath id="31dbcbceb1"><path d="M 273.179688 89.753906 L 271.378906 -12.980469 L 366.613281 -14.652344 L 368.414062 88.082031 Z M 273.179688 89.753906 " clip-rule="nonzero"/></clipPath><clipPath id="58f269ed69"><path d="M 377 0 L 450 0 L 450 45 L 377 45 Z M 377 0 " clip-rule="nonzero"/></clipPath><clipPath id="e304e2c3c3"><path d="M 377.792969 86.046875 L 376.214844 -3.941406 L 459.453125 -5.398438 L 461.03125 84.585938 Z M 377.792969 86.046875 " clip-rule="nonzero"/></clipPath><clipPath id="3241fc939f"><path d="M 377.792969 86.046875 L 376.214844 -3.941406 L 459.453125 -5.398438 L 461.03125 84.585938 Z M 377.792969 86.046875 " clip-rule="nonzero"/></clipPath><clipPath id="86029cfc95"><path d="M 256 5 L 313 5 L 313 45 L 256 45 Z M 256 5 " clip-rule="nonzero"/></clipPath><clipPath id="1719af2f65"><path d="M 256.25 6.121094 L 310.785156 1.855469 L 314.355469 47.511719 L 259.820312 51.777344 Z M 256.25 6.121094 " clip-rule="nonzero"/></clipPath><clipPath id="58f608130a"><path d="M 306.882812 15.691406 C 309.617188 15.628906 311.914062 17.335938 312.109375 20.222656 C 312.296875 22.972656 310.238281 25.367188 307.476562 25.585938 C 305.179688 26.042969 300.792969 27.949219 302.921875 31.078125 C 303.945312 32.589844 305.191406 33.304688 305.386719 35.285156 C 305.710938 38.539062 302.769531 41.8125 299.402344 41.265625 C 298.457031 41.117188 297.546875 40.726562 296.644531 40.433594 C 292.644531 39.113281 288.40625 40.089844 285.132812 42.691406 C 282.375 44.875 280.476562 48.09375 277.007812 49.300781 C 273.324219 50.582031 269.097656 50.074219 265.917969 47.78125 C 263.191406 45.789062 261.296875 42.613281 261.0625 39.253906 C 260.8125 35.710938 262.324219 32.355469 262.707031 28.875 C 262.925781 26.835938 262.753906 24.65625 261.878906 22.769531 C 260.992188 20.898438 259.277344 19.820312 258.179688 18.117188 C 257.464844 17.015625 257 15.710938 256.890625 14.308594 C 256.535156 9.785156 259.914062 5.835938 264.4375 5.480469 C 265.714844 5.382812 267.015625 5.585938 268.195312 6.066406 C 270.304688 6.933594 271.707031 8.808594 273.800781 9.71875 C 277.3125 11.246094 280.175781 10.003906 283.625 9.105469 C 285.8125 8.527344 288.648438 8.335938 290.773438 9.269531 C 292.535156 10.039062 293.652344 11.839844 294.65625 13.394531 C 297.417969 17.644531 302.441406 15.8125 306.730469 15.6875 C 306.800781 15.683594 306.84375 15.695312 306.882812 15.691406 Z M 306.882812 15.691406 " clip-rule="nonzero"/></clipPath><clipPath id="c6a76b1c8f"><path d="M 255.210938 0 L 273.960938 0 L 273.960938 11.355469 L 255.210938 11.355469 Z M 255.210938 0 " clip-rule="nonzero"/></clipPath><clipPath id="8f202bcb0c"><path d="M 317.441406 30.4375 L 343.691406 30.4375 L 343.691406 45 L 317.441406 45 Z M 317.441406 30.4375 " clip-rule="nonzero"/></clipPath><clipPath id="38c6460f38"><path d="M 379 0 L 408 0 L 408 13 L 379 13 Z M 379 0 " clip-rule="nonzero"/></clipPath><clipPath id="6214226a07"><path d="M 379.222656 10.285156 L 382.734375 -13.457031 L 408.699219 -9.617188 L 405.191406 14.125 Z M 379.222656 10.285156 " clip-rule="nonzero"/></clipPath><clipPath id="ca22d813b4"><path d="M 379.222656 10.285156 L 382.734375 -13.457031 L 408.699219 -9.617188 L 405.191406 14.125 Z M 379.222656 10.285156 " clip-rule="nonzero"/></clipPath><clipPath id="c6931aa1ed"><path d="M 289 0 L 327 0 L 327 32 L 289 32 Z M 289 0 " clip-rule="nonzero"/></clipPath><clipPath id="9fab84a856"><path d="M 312.539062 33.738281 L 282.738281 12.089844 L 300.859375 -12.855469 L 330.660156 8.792969 Z M 312.539062 33.738281 " clip-rule="nonzero"/></clipPath><clipPath id="8598a12262"><path d="M 290.78125 6.710938 C 289.355469 5.546875 288.925781 3.671875 290.085938 2.105469 C 291.191406 0.613281 293.292969 0.285156 294.800781 1.382812 C 296.179688 2.152344 299.261719 3.09375 299.535156 0.558594 C 299.671875 -0.664062 299.347656 -1.570312 300.113281 -2.671875 C 301.367188 -4.480469 304.304688 -4.875 305.789062 -3.121094 C 306.210938 -2.632812 306.507812 -2.035156 306.839844 -1.492188 C 308.3125 0.933594 310.910156 2.285156 313.722656 2.382812 C 316.089844 2.472656 318.46875 1.652344 320.773438 2.546875 C 323.21875 3.503906 325.164062 5.609375 325.792969 8.175781 C 326.316406 10.386719 325.898438 12.839844 324.550781 14.664062 C 323.132812 16.585938 320.890625 17.648438 319.175781 19.261719 C 318.171875 20.210938 317.304688 21.402344 316.929688 22.75 C 316.566406 24.097656 316.972656 25.402344 316.792969 26.75 C 316.675781 27.628906 316.34375 28.5 315.789062 29.265625 C 313.992188 31.738281 310.535156 32.285156 308.0625 30.488281 C 307.367188 29.984375 306.789062 29.308594 306.394531 28.546875 C 305.695312 27.179688 305.792969 25.609375 305.117188 24.226562 C 303.988281 21.910156 301.976562 21.296875 299.816406 20.25 C 298.445312 19.585938 296.910156 18.449219 296.230469 17.039062 C 295.664062 15.875 295.875 14.464844 296.042969 13.230469 C 296.484375 9.847656 293.113281 8.589844 290.859375 6.777344 C 290.820312 6.75 290.804688 6.726562 290.78125 6.710938 Z M 290.78125 6.710938 " clip-rule="nonzero"/></clipPath><clipPath id="a57ab753f5"><path d="M 240 29 L 276 29 L 276 45 L 240 45 Z M 240 29 " clip-rule="nonzero"/></clipPath><clipPath id="c774b0a583"><path d="M 237.839844 47.890625 L 254.703125 23.078125 L 281.375 41.210938 L 264.507812 66.019531 Z M 237.839844 47.890625 " clip-rule="nonzero"/></clipPath><clipPath id="2eb87121c4"><path d="M 237.839844 47.890625 L 254.703125 23.078125 L 281.375 41.210938 L 264.507812 66.019531 Z M 237.839844 47.890625 " clip-rule="nonzero"/></clipPath><clipPath id="577a101c05"><path d="M 354 13 L 372 13 L 372 32 L 354 32 Z M 354 13 " clip-rule="nonzero"/></clipPath><clipPath id="4a89f8e018"><path d="M 352.703125 29.472656 L 357.011719 11.222656 L 373.800781 15.191406 L 369.488281 33.4375 Z M 352.703125 29.472656 " clip-rule="nonzero"/></clipPath><clipPath id="cbe7241086"><path d="M 352.703125 29.472656 L 357.011719 11.222656 L 373.800781 15.191406 L 369.488281 33.4375 Z M 352.703125 29.472656 " clip-rule="nonzero"/></clipPath><clipPath id="6e3efd8033"><path d="M 0 0 L 68 0 L 68 45 L 0 45 Z M 0 0 " clip-rule="nonzero"/></clipPath><clipPath id="79e116ec08"><path d="M -13.058594 75.984375 L -14.636719 -14.003906 L 68.601562 -15.460938 L 70.179688 74.523438 Z M -13.058594 75.984375 " clip-rule="nonzero"/></clipPath><clipPath id="cda1d77f0d"><path d="M -13.058594 75.984375 L -14.636719 -14.003906 L 68.601562 -15.460938 L 70.179688 74.523438 Z M -13.058594 75.984375 " clip-rule="nonzero"/></clipPath><clipPath id="1cc9c1e270"><path d="M 31 17 L 78 17 L 78 45 L 31 45 Z M 31 17 " clip-rule="nonzero"/></clipPath><clipPath id="10f2afeea6"><path d="M 59.289062 14.839844 L 89.480469 55.847656 L 55.148438 81.121094 L 24.957031 40.113281 Z M 59.289062 14.839844 " clip-rule="nonzero"/></clipPath><clipPath id="41c0081352"><path d="M 76.625 59.566406 C 78.015625 61.695312 77.796875 64.351562 75.613281 65.929688 C 73.53125 67.429688 70.625 66.976562 69.09375 64.902344 C 67.605469 63.3125 63.9375 60.78125 62.511719 64.003906 C 61.824219 65.558594 61.871094 66.890625 60.402344 68.019531 C 57.988281 69.875 53.953125 69.160156 52.730469 66.234375 C 52.382812 65.410156 52.242188 64.5 52.03125 63.644531 C 51.109375 59.832031 48.253906 56.960938 44.585938 55.652344 C 41.503906 54.546875 38.023438 54.628906 35.367188 52.480469 C 32.542969 50.199219 30.863281 46.609375 31.113281 42.964844 C 31.347656 39.832031 32.925781 36.773438 35.464844 34.933594 C 38.140625 32.996094 41.539062 32.539062 44.476562 31.132812 C 46.195312 30.300781 47.835938 29.09375 48.898438 27.476562 C 49.941406 25.855469 49.949219 23.964844 50.753906 22.261719 C 51.273438 21.15625 52.078125 20.148438 53.132812 19.371094 C 56.53125 16.867188 61.316406 17.59375 63.820312 20.996094 C 64.527344 21.953125 65.003906 23.082031 65.207031 24.253906 C 65.554688 26.347656 64.765625 28.375 65.074219 30.480469 C 65.597656 34.007812 67.988281 35.660156 70.390625 37.945312 C 71.925781 39.390625 73.46875 41.535156 73.777344 43.675781 C 74.035156 45.449219 73.164062 47.214844 72.425781 48.769531 C 70.425781 53.046875 74.339844 56.113281 76.550781 59.445312 C 76.589844 59.496094 76.601562 59.535156 76.625 59.566406 Z M 76.625 59.566406 " clip-rule="nonzero"/></clipPath><clipPath id="88351d41e5"><path d="M 0 0 L 53 0 L 53 21 L 0 21 Z M 0 0 " clip-rule="nonzero"/></clipPath><clipPath id="c0c442d2ea"><path d="M -3.53125 -23.015625 L 51.003906 -27.28125 L 54.578125 18.375 L 0.0390625 22.636719 Z M -3.53125 -23.015625 " clip-rule="nonzero"/></clipPath><clipPath id="022814ea3a"><path d="M 47.101562 -13.449219 C 49.835938 -13.507812 52.132812 -11.800781 52.332031 -8.914062 C 52.515625 -6.164062 50.457031 -3.769531 47.695312 -3.554688 C 45.398438 -3.09375 41.011719 -1.1875 43.140625 1.941406 C 44.167969 3.453125 45.410156 4.164062 45.605469 6.144531 C 45.929688 9.402344 42.988281 12.675781 39.625 12.128906 C 38.675781 11.980469 37.765625 11.589844 36.863281 11.296875 C 32.863281 9.976562 28.628906 10.949219 25.355469 13.550781 C 22.59375 15.738281 20.695312 18.957031 17.230469 20.164062 C 13.546875 21.441406 9.316406 20.933594 6.136719 18.644531 C 3.410156 16.652344 1.515625 13.476562 1.28125 10.117188 C 1.03125 6.574219 2.542969 3.21875 2.925781 -0.261719 C 3.144531 -2.304688 2.972656 -4.480469 2.097656 -6.367188 C 1.214844 -8.238281 -0.503906 -9.320312 -1.601562 -11.019531 C -2.316406 -12.125 -2.78125 -13.425781 -2.890625 -14.828125 C -3.242188 -19.351562 0.132812 -23.304688 4.65625 -23.65625 C 5.933594 -23.757812 7.234375 -23.550781 8.417969 -23.070312 C 10.523438 -22.203125 11.925781 -20.332031 14.019531 -19.417969 C 17.535156 -17.890625 20.394531 -19.136719 23.84375 -20.035156 C 26.035156 -20.609375 28.867188 -20.804688 30.992188 -19.867188 C 32.753906 -19.097656 33.875 -17.300781 34.875 -15.746094 C 37.636719 -11.492188 42.660156 -13.324219 46.949219 -13.449219 C 47.019531 -13.453125 47.0625 -13.445312 47.101562 -13.449219 Z M 47.101562 -13.449219 " clip-rule="nonzero"/></clipPath><clipPath id="3b8b6f3de8"><path d="M 0 28 L 21 28 L 21 45 L 0 45 Z M 0 28 " clip-rule="nonzero"/></clipPath><clipPath id="fa2412536f"><path d="M -7.308594 50.699219 L -3.800781 26.957031 L 22.167969 30.796875 L 18.65625 54.539062 Z M -7.308594 50.699219 " clip-rule="nonzero"/></clipPath><clipPath id="0ed8708db5"><path d="M -7.308594 50.699219 L -3.800781 26.957031 L 22.167969 30.796875 L 18.65625 54.539062 Z M -7.308594 50.699219 " clip-rule="nonzero"/></clipPath><clipPath id="80033425e5"><path d="M 36.003906 0 L 54.753906 0 L 54.753906 13.863281 L 36.003906 13.863281 Z M 36.003906 0 " clip-rule="nonzero"/></clipPath><clipPath id="55cac2f00f"><path d="M 364 23 L 419 23 L 419 45 L 364 45 Z M 364 23 " clip-rule="nonzero"/></clipPath><clipPath id="d19a2b0470"><path d="M 412.742188 71.222656 L 359.660156 58.003906 L 370.726562 13.566406 L 423.808594 26.785156 Z M 412.742188 71.222656 " clip-rule="nonzero"/></clipPath><clipPath id="5b530f14b0"><path d="M 367.742188 46.117188 C 365.132812 45.308594 363.492188 42.964844 364.21875 40.160156 C 364.910156 37.492188 367.625 35.875 370.3125 36.542969 C 372.636719 36.835938 377.402344 36.414062 376.371094 32.773438 C 375.878906 31.015625 374.925781 29.945312 375.363281 28.003906 C 376.085938 24.8125 379.914062 22.640625 382.933594 24.222656 C 383.785156 24.664062 384.523438 25.324219 385.289062 25.886719 C 388.664062 28.402344 392.992188 28.824219 396.917969 27.390625 C 400.230469 26.191406 403.050781 23.738281 406.71875 23.691406 C 410.617188 23.644531 414.46875 25.464844 416.761719 28.644531 C 418.714844 31.398438 419.507812 35.011719 418.667969 38.273438 C 417.78125 41.710938 415.285156 44.414062 413.820312 47.59375 C 412.96875 49.460938 412.441406 51.582031 412.671875 53.648438 C 412.917969 55.703125 414.207031 57.273438 414.707031 59.234375 C 415.039062 60.507812 415.066406 61.890625 414.726562 63.253906 C 413.628906 67.65625 409.175781 70.335938 404.773438 69.238281 C 403.53125 68.929688 402.359375 68.324219 401.390625 67.492188 C 399.667969 66.003906 398.929688 63.78125 397.230469 62.253906 C 394.382812 59.695312 391.273438 59.964844 387.71875 59.726562 C 385.460938 59.582031 382.710938 58.867188 380.992188 57.304688 C 379.5625 56.015625 379.070312 53.957031 378.613281 52.167969 C 377.339844 47.257812 371.996094 47.40625 367.886719 46.167969 C 367.820312 46.148438 367.78125 46.125 367.742188 46.117188 Z M 367.742188 46.117188 " clip-rule="nonzero"/></clipPath><clipPath id="2ac5794520"><path d="M 436 3 L 450 3 L 450 39 L 436 39 Z M 436 3 " clip-rule="nonzero"/></clipPath><clipPath id="4f0d4c2b5f"><path d="M 459.929688 41.128906 L 430.128906 19.480469 L 448.25 -5.464844 L 478.050781 16.179688 Z M 459.929688 41.128906 " clip-rule="nonzero"/></clipPath><clipPath id="f2b046834d"><path d="M 438.171875 14.101562 C 436.746094 12.9375 436.316406 11.058594 437.476562 9.492188 C 438.582031 8.003906 440.683594 7.675781 442.191406 8.773438 C 443.570312 9.539062 446.652344 10.480469 446.925781 7.949219 C 447.0625 6.726562 446.738281 5.816406 447.503906 4.71875 C 448.757812 2.90625 451.695312 2.515625 453.179688 4.265625 C 453.601562 4.757812 453.898438 5.355469 454.230469 5.898438 C 455.703125 8.324219 458.300781 9.675781 461.113281 9.773438 C 463.480469 9.859375 465.859375 9.042969 468.164062 9.9375 C 470.609375 10.890625 472.554688 13 473.183594 15.5625 C 473.707031 17.777344 473.289062 20.230469 471.941406 22.054688 C 470.523438 23.976562 468.28125 25.035156 466.566406 26.652344 C 465.5625 27.601562 464.695312 28.792969 464.320312 30.140625 C 463.957031 31.484375 464.363281 32.789062 464.183594 34.140625 C 464.066406 35.019531 463.734375 35.890625 463.179688 36.65625 C 461.382812 39.125 457.925781 39.675781 455.453125 37.878906 C 454.757812 37.371094 454.179688 36.699219 453.785156 35.9375 C 453.085938 34.570312 453.183594 32.996094 452.507812 31.617188 C 451.378906 29.296875 449.367188 28.683594 447.207031 27.636719 C 445.835938 26.976562 444.300781 25.835938 443.621094 24.429688 C 443.054688 23.261719 443.265625 21.855469 443.433594 20.621094 C 443.875 17.234375 440.503906 15.976562 438.25 14.167969 C 438.210938 14.140625 438.195312 14.117188 438.171875 14.101562 Z M 438.171875 14.101562 " clip-rule="nonzero"/></clipPath></defs><rect x="-45" width="540" fill="#ffffff" y="-4.5" height="53.999999" fill-opacity="1"/><rect x="-45" width="540" fill="#ffffff" y="-4.5" height="53.999999" fill-opacity="1"/><rect x="-45" width="540" fill="#d2d19a" y="-4.5" height="53.999999" fill-opacity="1"/><g clip-path="url(#2a4e91a7b5)"><g clip-path="url(#697aff17ad)"><g clip-path="url(#55f385fffe)"><path fill="#a1bdb6" d="M 105.089844 38.871094 C 101.160156 37.988281 97.074219 37.953125 93.125 37.183594 C 90.445312 36.660156 87.769531 35.773438 85.605469 34.09375 C 83.445312 32.414062 81.847656 29.84375 81.8125 27.097656 C 81.753906 22.71875 85.472656 19.230469 89.3125 17.171875 C 93.148438 15.097656 97.496094 13.761719 100.617188 10.71875 C 104.800781 6.648438 105.894531 -0.265625 103.175781 -5.441406 C 102.191406 -7.3125 100.757812 -9.003906 100.34375 -11.078125 C 99.507812 -15.269531 103.542969 -19.265625 107.792969 -19.625 C 112.039062 -19.984375 116.082031 -17.640625 119.191406 -14.726562 C 122.304688 -11.8125 124.804688 -8.273438 127.96875 -5.410156 C 131.132812 -2.539062 135.265625 -0.3125 139.488281 -0.863281 C 143.058594 -1.328125 146.121094 -3.695312 149.644531 -4.433594 C 154.449219 -5.453125 159.78125 -3.011719 162.167969 1.292969 C 164.554688 5.601562 163.8125 11.433594 160.414062 15.003906 C 157.253906 18.324219 152.273438 19.628906 149.5625 23.335938 C 147.109375 26.675781 147.082031 31.332031 148.410156 35.273438 C 149.734375 39.214844 152.222656 42.617188 154.570312 46.042969 C 156.921875 49.46875 159.203125 53.074219 160.011719 57.152344 C 160.914062 61.71875 159.09375 67.410156 154.605469 68.570312 C 151.550781 69.367188 148.269531 67.707031 146.285156 65.238281 C 144.308594 62.773438 143.390625 59.628906 142.667969 56.535156 C 141.746094 52.53125 140.414062 47.710938 136.460938 46.65625 C 133.511719 45.859375 130.480469 47.703125 128.367188 49.914062 C 126.117188 52.265625 124.417969 55.105469 122.316406 57.589844 C 120.21875 60.078125 117.523438 62.308594 114.3125 62.820312 C 111.101562 63.324219 107.386719 61.542969 106.625 58.363281 C 105.371094 53.136719 112.089844 50.972656 113.722656 47.140625 C 115.78125 42.289062 108.535156 39.648438 105.089844 38.871094 Z M 105.089844 38.871094 " fill-opacity="1" fill-rule="nonzero"/></g></g></g><g clip-path="url(#48a93402a4)"><g clip-path="url(#5ec860f734)"><g clip-path="url(#90b2f25ae6)"><path fill="#a1bdb6" d="M 229.035156 58.53125 C 225.101562 57.648438 221.019531 57.613281 217.066406 56.84375 C 214.386719 56.320312 211.710938 55.433594 209.550781 53.753906 C 207.390625 52.074219 205.792969 49.503906 205.753906 46.757812 C 205.699219 42.378906 209.417969 38.890625 213.253906 36.832031 C 217.09375 34.757812 221.4375 33.421875 224.5625 30.378906 C 228.746094 26.304688 229.835938 19.394531 227.117188 14.214844 C 226.136719 12.347656 224.703125 10.652344 224.285156 8.582031 C 223.453125 4.390625 227.488281 0.394531 231.734375 0.0351562 C 235.984375 -0.324219 240.023438 2.019531 243.136719 4.933594 C 246.25 7.847656 248.75 11.386719 251.914062 14.25 C 255.078125 17.121094 259.210938 19.347656 263.433594 18.796875 C 267.003906 18.332031 270.066406 15.964844 273.589844 15.226562 C 278.394531 14.207031 283.726562 16.648438 286.113281 20.953125 C 288.5 25.257812 287.757812 31.09375 284.355469 34.664062 C 281.195312 37.984375 276.214844 39.289062 273.503906 42.996094 C 271.050781 46.335938 271.027344 50.988281 272.351562 54.933594 C 273.675781 58.875 276.164062 62.277344 278.515625 65.703125 C 280.867188 69.128906 283.144531 72.734375 283.957031 76.8125 C 284.859375 81.378906 283.039062 87.070312 278.550781 88.230469 C 275.492188 89.027344 272.214844 87.367188 270.226562 84.898438 C 268.253906 82.433594 267.332031 79.289062 266.613281 76.195312 C 265.6875 72.191406 264.359375 67.371094 260.402344 66.316406 C 257.453125 65.519531 254.425781 67.363281 252.3125 69.574219 C 250.0625 71.925781 248.359375 74.765625 246.261719 77.25 C 244.164062 79.738281 241.46875 81.96875 238.257812 82.480469 C 235.046875 82.980469 231.332031 81.203125 230.570312 78.023438 C 229.316406 72.796875 236.035156 70.632812 237.664062 66.800781 C 239.722656 61.949219 232.480469 59.308594 229.035156 58.53125 Z M 229.035156 58.53125 " fill-opacity="1" fill-rule="nonzero"/></g></g></g><g clip-path="url(#95bdd92a1c)"><g clip-path="url(#f13107c1c0)"><g clip-path="url(#4486bd22cd)"><path fill="#e4c4bf" d="M 92.441406 2.390625 L 146.835938 -1.863281 L 150.398438 43.652344 L 96 47.90625 Z M 92.441406 2.390625 " fill-opacity="1" fill-rule="nonzero"/></g></g></g><g clip-path="url(#bda36b16aa)"><path fill="#5a7a80" d="M 218.9375 30.113281 C 218.9375 31.21875 218.03125 32.117188 216.910156 32.117188 C 215.792969 32.117188 214.882812 31.21875 214.882812 30.113281 C 214.882812 29.007812 215.792969 28.113281 216.910156 28.113281 C 218.03125 28.113281 218.9375 29.007812 218.9375 30.113281 Z M 221.84375 28.847656 C 222.253906 28.847656 222.589844 28.519531 222.589844 28.113281 C 222.589844 27.707031 222.253906 27.378906 221.84375 27.378906 C 221.433594 27.378906 221.101562 27.707031 221.101562 28.113281 C 221.101562 28.519531 221.433594 28.847656 221.84375 28.847656 Z M 232.789062 33.609375 C 232.375 33.609375 232.042969 33.941406 232.042969 34.347656 C 232.042969 34.753906 232.375 35.082031 232.789062 35.082031 C 233.199219 35.082031 233.53125 34.753906 233.53125 34.347656 C 233.53125 33.941406 233.199219 33.609375 232.789062 33.609375 Z M 231.300781 28.964844 C 230.886719 28.964844 230.554688 29.292969 230.554688 29.699219 C 230.554688 30.105469 230.886719 30.4375 231.300781 30.4375 C 231.710938 30.4375 232.042969 30.105469 232.042969 29.699219 C 232.042969 29.292969 231.710938 28.964844 231.300781 28.964844 Z M 229.5625 35.609375 C 229.5625 35.203125 229.230469 34.871094 228.820312 34.871094 C 228.40625 34.871094 228.074219 35.203125 228.074219 35.609375 C 228.074219 36.015625 228.40625 36.34375 228.820312 36.34375 C 229.230469 36.34375 229.5625 36.015625 229.5625 35.609375 Z M 220.1875 40.203125 C 219.683594 40.703125 219.683594 41.507812 220.1875 42.007812 C 220.691406 42.503906 221.507812 42.503906 222.011719 42.007812 C 222.515625 41.507812 222.515625 40.703125 222.011719 40.203125 C 221.507812 39.707031 220.691406 39.707031 220.1875 40.203125 Z M 237.628906 34.121094 C 237.121094 33.625 236.304688 33.625 235.800781 34.121094 C 235.296875 34.621094 235.296875 35.425781 235.800781 35.925781 C 236.304688 36.421875 237.121094 36.421875 237.628906 35.925781 C 238.132812 35.425781 238.132812 34.621094 237.628906 34.121094 Z M 222.738281 31.960938 C 222.148438 31.960938 221.675781 32.429688 221.675781 33.007812 C 221.675781 33.589844 222.148438 34.058594 222.738281 34.058594 C 223.324219 34.058594 223.800781 33.589844 223.800781 33.007812 C 223.800781 32.429688 223.324219 31.960938 222.738281 31.960938 Z M 222.351562 22.863281 C 222.9375 22.863281 223.414062 22.390625 223.414062 21.8125 C 223.414062 21.234375 222.9375 20.765625 222.351562 20.765625 C 221.765625 20.765625 221.289062 21.234375 221.289062 21.8125 C 221.289062 22.390625 221.765625 22.863281 222.351562 22.863281 Z M 235.085938 24.742188 C 235.085938 24.164062 234.609375 23.695312 234.023438 23.695312 C 233.4375 23.695312 232.960938 24.164062 232.960938 24.742188 C 232.960938 25.324219 233.4375 25.792969 234.023438 25.792969 C 234.609375 25.792969 235.085938 25.324219 235.085938 24.742188 Z M 229.882812 25.15625 C 229.882812 24.578125 229.40625 24.109375 228.820312 24.109375 C 228.230469 24.109375 227.757812 24.578125 227.757812 25.15625 C 227.757812 25.738281 228.230469 26.207031 228.820312 26.207031 C 229.40625 26.207031 229.882812 25.738281 229.882812 25.15625 Z M 227.039062 28.871094 C 226.804688 28.871094 226.617188 29.058594 226.617188 29.285156 C 226.617188 29.515625 226.804688 29.699219 227.039062 29.699219 C 227.269531 29.699219 227.457031 29.515625 227.457031 29.285156 C 227.457031 29.058594 227.269531 28.871094 227.039062 28.871094 Z M 225.351562 37.277344 C 225.125 37.238281 224.90625 37.390625 224.867188 37.617188 C 224.828125 37.839844 224.980469 38.054688 225.210938 38.09375 C 225.4375 38.132812 225.65625 37.984375 225.695312 37.757812 C 225.734375 37.53125 225.582031 37.316406 225.351562 37.277344 Z M 225.097656 25.792969 C 225.097656 25.5625 224.910156 25.378906 224.675781 25.378906 C 224.445312 25.378906 224.257812 25.5625 224.257812 25.792969 C 224.257812 26.019531 224.445312 26.207031 224.675781 26.207031 C 224.910156 26.207031 225.097656 26.019531 225.097656 25.792969 Z M 217.101562 25.792969 C 217.332031 25.792969 217.519531 25.605469 217.519531 25.378906 C 217.519531 25.148438 217.332031 24.964844 217.101562 24.964844 C 216.871094 24.964844 216.683594 25.148438 216.683594 25.378906 C 216.683594 25.605469 216.871094 25.792969 217.101562 25.792969 Z M 228.5 21.8125 C 228.734375 21.8125 228.921875 21.628906 228.921875 21.398438 C 228.921875 21.167969 228.734375 20.984375 228.5 20.984375 C 228.269531 20.984375 228.082031 21.167969 228.082031 21.398438 C 228.082031 21.628906 228.269531 21.8125 228.5 21.8125 Z M 229.628906 39.90625 C 229.183594 39.828125 228.761719 40.125 228.6875 40.5625 C 228.609375 41 228.90625 41.417969 229.351562 41.492188 C 229.792969 41.566406 230.214844 41.273438 230.292969 40.835938 C 230.371094 40.398438 230.074219 39.980469 229.628906 39.90625 Z M 219.96875 35.894531 C 219.890625 35.496094 219.496094 35.234375 219.09375 35.316406 C 218.691406 35.394531 218.429688 35.78125 218.507812 36.179688 C 218.589844 36.578125 218.980469 36.835938 219.382812 36.757812 C 219.789062 36.679688 220.050781 36.292969 219.96875 35.894531 Z M 235.003906 39.691406 C 234.773438 39.691406 234.585938 39.875 234.585938 40.105469 C 234.585938 40.332031 234.773438 40.519531 235.003906 40.519531 C 235.234375 40.519531 235.421875 40.332031 235.421875 40.105469 C 235.421875 39.875 235.234375 39.691406 235.003906 39.691406 Z M 235.003906 39.691406 " fill-opacity="1" fill-rule="nonzero"/></g><g clip-path="url(#28e0e3cbac)"><path fill="#faf5ef" d="M 75.011719 21.539062 C 75.011719 22.414062 74.277344 23.125 73.375 23.125 C 72.472656 23.125 71.742188 22.414062 71.742188 21.539062 C 71.742188 20.660156 72.472656 19.949219 73.375 19.949219 C 74.277344 19.949219 75.011719 20.660156 75.011719 21.539062 Z M 77.355469 20.53125 C 77.683594 20.53125 77.953125 20.273438 77.953125 19.949219 C 77.953125 19.628906 77.683594 19.367188 77.355469 19.367188 C 77.023438 19.367188 76.753906 19.628906 76.753906 19.949219 C 76.753906 20.273438 77.023438 20.53125 77.355469 20.53125 Z M 86.179688 24.3125 C 85.847656 24.3125 85.578125 24.570312 85.578125 24.894531 C 85.578125 25.214844 85.847656 25.476562 86.179688 25.476562 C 86.511719 25.476562 86.78125 25.214844 86.78125 24.894531 C 86.78125 24.570312 86.511719 24.3125 86.179688 24.3125 Z M 84.976562 20.625 C 84.648438 20.625 84.378906 20.886719 84.378906 21.210938 C 84.378906 21.53125 84.648438 21.792969 84.976562 21.792969 C 85.308594 21.792969 85.578125 21.53125 85.578125 21.210938 C 85.578125 20.886719 85.308594 20.625 84.976562 20.625 Z M 83.578125 25.894531 C 83.578125 25.574219 83.308594 25.3125 82.976562 25.3125 C 82.648438 25.3125 82.378906 25.574219 82.378906 25.894531 C 82.378906 26.21875 82.648438 26.476562 82.976562 26.476562 C 83.308594 26.476562 83.578125 26.21875 83.578125 25.894531 Z M 76.015625 29.539062 C 75.609375 29.933594 75.609375 30.574219 76.015625 30.96875 C 76.421875 31.363281 77.082031 31.363281 77.488281 30.96875 C 77.894531 30.574219 77.894531 29.933594 77.488281 29.539062 C 77.082031 29.144531 76.421875 29.144531 76.015625 29.539062 Z M 90.082031 24.714844 C 89.675781 24.320312 89.015625 24.320312 88.609375 24.714844 C 88.203125 25.113281 88.203125 25.75 88.609375 26.148438 C 89.015625 26.542969 89.675781 26.542969 90.082031 26.148438 C 90.488281 25.75 90.488281 25.113281 90.082031 24.714844 Z M 78.074219 23 C 77.601562 23 77.214844 23.375 77.214844 23.832031 C 77.214844 24.292969 77.601562 24.664062 78.074219 24.664062 C 78.546875 24.664062 78.929688 24.292969 78.929688 23.832031 C 78.929688 23.375 78.546875 23 78.074219 23 Z M 77.761719 15.785156 C 78.234375 15.785156 78.621094 15.414062 78.621094 14.953125 C 78.621094 14.492188 78.234375 14.121094 77.761719 14.121094 C 77.289062 14.121094 76.90625 14.492188 76.90625 14.953125 C 76.90625 15.414062 77.289062 15.785156 77.761719 15.785156 Z M 88.03125 17.277344 C 88.03125 16.820312 87.648438 16.445312 87.175781 16.445312 C 86.703125 16.445312 86.320312 16.820312 86.320312 17.277344 C 86.320312 17.738281 86.703125 18.109375 87.175781 18.109375 C 87.648438 18.109375 88.03125 17.738281 88.03125 17.277344 Z M 83.835938 17.605469 C 83.835938 17.148438 83.453125 16.773438 82.976562 16.773438 C 82.503906 16.773438 82.121094 17.148438 82.121094 17.605469 C 82.121094 18.066406 82.503906 18.4375 82.976562 18.4375 C 83.453125 18.4375 83.835938 18.066406 83.835938 17.605469 Z M 81.542969 20.550781 C 81.355469 20.550781 81.203125 20.699219 81.203125 20.878906 C 81.203125 21.0625 81.355469 21.210938 81.542969 21.210938 C 81.726562 21.210938 81.878906 21.0625 81.878906 20.878906 C 81.878906 20.699219 81.726562 20.550781 81.542969 20.550781 Z M 80.183594 27.21875 C 80 27.1875 79.824219 27.308594 79.792969 27.488281 C 79.761719 27.667969 79.882812 27.835938 80.066406 27.867188 C 80.25 27.898438 80.425781 27.777344 80.457031 27.597656 C 80.492188 27.421875 80.367188 27.25 80.183594 27.21875 Z M 79.976562 18.109375 C 79.976562 17.929688 79.824219 17.78125 79.636719 17.78125 C 79.449219 17.78125 79.300781 17.929688 79.300781 18.109375 C 79.300781 18.292969 79.449219 18.4375 79.636719 18.4375 C 79.824219 18.4375 79.976562 18.292969 79.976562 18.109375 Z M 73.527344 18.109375 C 73.714844 18.109375 73.867188 17.960938 73.867188 17.78125 C 73.867188 17.601562 73.714844 17.453125 73.527344 17.453125 C 73.34375 17.453125 73.191406 17.601562 73.191406 17.78125 C 73.191406 17.960938 73.34375 18.109375 73.527344 18.109375 Z M 82.722656 14.953125 C 82.910156 14.953125 83.058594 14.804688 83.058594 14.625 C 83.058594 14.445312 82.910156 14.296875 82.722656 14.296875 C 82.535156 14.296875 82.382812 14.445312 82.382812 14.625 C 82.382812 14.804688 82.535156 14.953125 82.722656 14.953125 Z M 83.632812 29.304688 C 83.273438 29.242188 82.933594 29.476562 82.871094 29.824219 C 82.808594 30.171875 83.050781 30.5 83.40625 30.5625 C 83.765625 30.621094 84.105469 30.390625 84.167969 30.042969 C 84.230469 29.695312 83.988281 29.363281 83.632812 29.304688 Z M 75.839844 26.121094 C 75.777344 25.804688 75.460938 25.601562 75.136719 25.664062 C 74.808594 25.726562 74.597656 26.03125 74.664062 26.347656 C 74.726562 26.664062 75.042969 26.871094 75.371094 26.804688 C 75.695312 26.742188 75.90625 26.4375 75.839844 26.121094 Z M 87.964844 29.132812 C 87.777344 29.132812 87.628906 29.28125 87.628906 29.460938 C 87.628906 29.644531 87.777344 29.789062 87.964844 29.789062 C 88.152344 29.789062 88.304688 29.644531 88.304688 29.460938 C 88.304688 29.28125 88.152344 29.132812 87.964844 29.132812 Z M 87.964844 29.132812 " fill-opacity="1" fill-rule="nonzero"/></g><g clip-path="url(#e8693afb5a)"><path fill="#faf5ef" d="M 162.113281 35.527344 C 162.109375 35.351562 162.089844 35.179688 162.046875 35.007812 C 161.964844 34.664062 161.800781 34.339844 161.5625 34.074219 C 161.265625 33.742188 160.863281 33.523438 160.433594 33.417969 C 160.011719 33.3125 159.566406 33.320312 159.144531 33.410156 C 158.300781 33.582031 157.570312 34.050781 156.90625 34.546875 C 156.242188 35.039062 155.621094 35.574219 154.914062 35.941406 C 154.558594 36.125 154.1875 36.265625 153.800781 36.335938 C 153.417969 36.402344 153.019531 36.394531 152.652344 36.289062 C 152.128906 36.136719 151.667969 35.789062 151.308594 35.363281 C 150.945312 34.9375 150.671875 34.4375 150.417969 33.917969 C 150.160156 33.402344 149.921875 32.867188 149.613281 32.363281 C 149.300781 31.855469 148.910156 31.375 148.402344 31.035156 C 147.757812 30.609375 146.960938 30.4375 146.195312 30.515625 C 145.433594 30.589844 144.707031 30.902344 144.101562 31.359375 C 142.894531 32.273438 142.203125 33.703125 141.847656 35.144531 C 141.65625 35.933594 141.539062 36.734375 141.113281 37.351562 C 140.859375 37.722656 140.5 38.023438 140.132812 38.324219 C 138.859375 39.378906 137.542969 40.480469 136.714844 41.949219 C 136.300781 42.6875 136.015625 43.507812 135.964844 44.355469 C 135.910156 45.207031 136.101562 46.085938 136.566406 46.8125 C 136.925781 47.375 137.4375 47.824219 138.003906 48.171875 C 138.566406 48.515625 139.179688 48.757812 139.800781 48.957031 C 141.039062 49.351562 142.320312 49.578125 143.445312 50.128906 C 144.742188 50.765625 145.808594 51.8125 146.984375 52.722656 C 147.570312 53.179688 148.195312 53.605469 148.882812 53.921875 C 149.570312 54.234375 150.328125 54.433594 151.097656 54.414062 C 152.1875 54.382812 153.230469 53.910156 154.039062 53.199219 C 154.84375 52.484375 155.417969 51.542969 155.785156 50.546875 C 156.398438 48.875 156.449219 47.082031 156.636719 45.355469 C 156.828125 43.628906 157.203125 41.863281 158.285156 40.550781 C 159.097656 39.566406 160.285156 38.886719 161.164062 37.859375 C 161.601562 37.34375 161.960938 36.730469 162.078125 36.046875 C 162.105469 35.875 162.117188 35.699219 162.113281 35.527344 Z M 161.804688 35.535156 C 161.808594 35.6875 161.796875 35.84375 161.769531 35.996094 C 161.664062 36.605469 161.339844 37.171875 160.925781 37.660156 C 160.097656 38.632812 158.90625 39.308594 158.042969 40.355469 C 156.898438 41.742188 156.523438 43.574219 156.328125 45.320312 C 156.136719 47.066406 156.082031 48.832031 155.492188 50.441406 C 155.140625 51.398438 154.589844 52.292969 153.832031 52.964844 C 153.074219 53.636719 152.09375 54.078125 151.089844 54.105469 C 150.378906 54.121094 149.667969 53.9375 149.011719 53.640625 C 148.355469 53.339844 147.75 52.929688 147.175781 52.480469 C 146.019531 51.582031 144.941406 50.515625 143.585938 49.851562 C 142.402344 49.273438 141.109375 49.046875 139.894531 48.660156 C 139.289062 48.46875 138.699219 48.234375 138.164062 47.90625 C 137.632812 47.582031 137.160156 47.160156 136.828125 46.644531 C 136.402344 45.980469 136.226562 45.167969 136.273438 44.375 C 136.324219 43.582031 136.589844 42.804688 136.984375 42.101562 C 137.777344 40.699219 139.058594 39.617188 140.332031 38.5625 C 140.699219 38.261719 141.085938 37.945312 141.371094 37.527344 C 141.851562 36.828125 141.964844 35.984375 142.152344 35.21875 C 142.492188 33.820312 143.160156 32.460938 144.289062 31.605469 C 144.855469 31.179688 145.53125 30.890625 146.226562 30.824219 C 146.925781 30.753906 147.652344 30.910156 148.226562 31.292969 C 148.6875 31.597656 149.050781 32.039062 149.347656 32.523438 C 149.644531 33.003906 149.878906 33.53125 150.136719 34.054688 C 150.394531 34.578125 150.679688 35.105469 151.070312 35.5625 C 151.460938 36.023438 151.964844 36.414062 152.5625 36.585938 C 152.984375 36.707031 153.429688 36.714844 153.855469 36.640625 C 154.28125 36.5625 154.683594 36.410156 155.058594 36.214844 C 155.808594 35.824219 156.441406 35.28125 157.09375 34.792969 C 157.742188 34.308594 158.4375 33.867188 159.207031 33.710938 C 159.589844 33.632812 159.988281 33.628906 160.359375 33.71875 C 160.730469 33.808594 161.082031 34.003906 161.332031 34.28125 C 161.53125 34.503906 161.671875 34.785156 161.746094 35.078125 C 161.78125 35.226562 161.800781 35.378906 161.804688 35.535156 Z M 161.804688 35.535156 " fill-opacity="1" fill-rule="nonzero"/></g><g clip-path="url(#64c9a53a78)"><g clip-path="url(#1a77918038)"><g clip-path="url(#25a8cbe790)"><path fill="#faf5ef" d="M 208.605469 7.136719 C 208.582031 7.308594 208.578125 7.484375 208.59375 7.660156 C 208.625 8.011719 208.738281 8.355469 208.9375 8.65625 C 209.183594 9.023438 209.550781 9.300781 209.957031 9.46875 C 210.363281 9.632812 210.800781 9.691406 211.234375 9.667969 C 212.089844 9.617188 212.882812 9.261719 213.613281 8.867188 C 214.339844 8.476562 215.035156 8.039062 215.785156 7.78125 C 216.164062 7.648438 216.554688 7.5625 216.945312 7.554688 C 217.335938 7.542969 217.726562 7.609375 218.074219 7.769531 C 218.570312 7.992188 218.972656 8.40625 219.269531 8.878906 C 219.566406 9.351562 219.761719 9.890625 219.9375 10.4375 C 220.117188 10.984375 220.273438 11.550781 220.507812 12.097656 C 220.742188 12.644531 221.054688 13.175781 221.511719 13.585938 C 222.085938 14.101562 222.847656 14.386719 223.613281 14.421875 C 224.378906 14.460938 225.144531 14.257812 225.808594 13.894531 C 227.140625 13.167969 228.03125 11.851562 228.59375 10.476562 C 228.898438 9.726562 229.128906 8.953125 229.640625 8.402344 C 229.945312 8.074219 230.347656 7.828125 230.753906 7.582031 C 232.171875 6.726562 233.632812 5.828125 234.667969 4.496094 C 235.183594 3.832031 235.585938 3.058594 235.761719 2.226562 C 235.9375 1.390625 235.878906 0.496094 235.523438 -0.289062 C 235.25 -0.898438 234.808594 -1.421875 234.300781 -1.84375 C 233.796875 -2.269531 233.222656 -2.597656 232.640625 -2.882812 C 231.472656 -3.457031 230.238281 -3.867188 229.203125 -4.578125 C 228.015625 -5.398438 227.117188 -6.585938 226.085938 -7.660156 C 225.570312 -8.199219 225.019531 -8.710938 224.382812 -9.125 C 223.746094 -9.535156 223.027344 -9.84375 222.265625 -9.933594 C 221.183594 -10.066406 220.078125 -9.75 219.175781 -9.164062 C 218.277344 -8.574219 217.570312 -7.730469 217.0625 -6.796875 C 216.210938 -5.230469 215.898438 -3.464844 215.457031 -1.785156 C 215.019531 -0.105469 214.390625 1.585938 213.128906 2.726562 C 212.179688 3.582031 210.90625 4.078125 209.886719 4.96875 C 209.375 5.414062 208.933594 5.96875 208.71875 6.628906 C 208.664062 6.792969 208.625 6.964844 208.605469 7.136719 Z M 208.914062 7.175781 C 208.929688 7.023438 208.964844 6.871094 209.011719 6.722656 C 209.207031 6.136719 209.609375 5.621094 210.089844 5.203125 C 211.054688 4.359375 212.332031 3.863281 213.335938 2.957031 C 214.671875 1.75 215.3125 -0.0078125 215.757812 -1.707031 C 216.203125 -3.402344 216.515625 -5.144531 217.335938 -6.648438 C 217.824219 -7.542969 218.5 -8.351562 219.347656 -8.902344 C 220.195312 -9.457031 221.230469 -9.75 222.226562 -9.628906 C 222.933594 -9.542969 223.609375 -9.257812 224.214844 -8.863281 C 224.816406 -8.472656 225.355469 -7.976562 225.863281 -7.449219 C 226.875 -6.390625 227.78125 -5.179688 229.027344 -4.324219 C 230.109375 -3.582031 231.359375 -3.164062 232.5 -2.605469 C 233.074219 -2.328125 233.625 -2.007812 234.101562 -1.609375 C 234.582031 -1.207031 234.988281 -0.722656 235.242188 -0.164062 C 235.5625 0.554688 235.621094 1.382812 235.457031 2.160156 C 235.292969 2.941406 234.914062 3.671875 234.421875 4.308594 C 233.429688 5.582031 232.007812 6.464844 230.59375 7.320312 C 230.183594 7.566406 229.757812 7.820312 229.414062 8.191406 C 228.835938 8.8125 228.601562 9.632812 228.304688 10.363281 C 227.761719 11.691406 226.902344 12.945312 225.660156 13.621094 C 225.039062 13.960938 224.328125 14.148438 223.628906 14.113281 C 222.929688 14.082031 222.234375 13.820312 221.71875 13.355469 C 221.3125 12.988281 221.015625 12.496094 220.792969 11.976562 C 220.570312 11.453125 220.414062 10.898438 220.234375 10.34375 C 220.058594 9.789062 219.851562 9.226562 219.53125 8.714844 C 219.214844 8.203125 218.769531 7.746094 218.207031 7.488281 C 217.804688 7.304688 217.367188 7.234375 216.9375 7.246094 C 216.503906 7.257812 216.082031 7.351562 215.683594 7.488281 C 214.886719 7.761719 214.179688 8.210938 213.464844 8.597656 C 212.75 8.980469 211.996094 9.3125 211.214844 9.359375 C 210.824219 9.378906 210.429688 9.328125 210.074219 9.183594 C 209.71875 9.039062 209.402344 8.796875 209.195312 8.484375 C 209.03125 8.234375 208.933594 7.9375 208.902344 7.632812 C 208.890625 7.480469 208.894531 7.328125 208.914062 7.175781 Z M 208.914062 7.175781 " fill-opacity="1" fill-rule="nonzero"/></g></g></g><g clip-path="url(#309975470b)"><g clip-path="url(#0ee0d8d42a)"><g clip-path="url(#b1053dcd91)"><path fill="#5a7a80" d="M 177.972656 -31.207031 L 208.085938 9.699219 L 173.859375 34.894531 L 143.746094 -6.007812 Z M 177.972656 -31.207031 " fill-opacity="1" fill-rule="nonzero"/></g></g></g><g clip-path="url(#0412bde769)"><g clip-path="url(#6da01e67c8)"><g clip-path="url(#aa73fd8c57)"><path fill="#5a7a80" d="M 81.597656 -3.902344 C 81.480469 -3.71875 81.378906 -3.523438 81.300781 -3.316406 C 81.144531 -2.90625 81.082031 -2.457031 81.140625 -2.019531 C 81.210938 -1.472656 81.464844 -0.964844 81.824219 -0.5625 C 82.183594 -0.160156 82.640625 0.136719 83.128906 0.339844 C 84.105469 0.742188 85.179688 0.761719 86.203125 0.710938 C 87.222656 0.65625 88.230469 0.535156 89.207031 0.644531 C 89.695312 0.699219 90.175781 0.808594 90.613281 1.003906 C 91.050781 1.203125 91.449219 1.484375 91.75 1.847656 C 92.171875 2.363281 92.394531 3.042969 92.464844 3.730469 C 92.535156 4.421875 92.460938 5.128906 92.355469 5.839844 C 92.25 6.550781 92.117188 7.269531 92.078125 8.007812 C 92.039062 8.746094 92.097656 9.507812 92.378906 10.210938 C 92.730469 11.101562 93.417969 11.824219 94.25 12.273438 C 95.078125 12.722656 96.035156 12.902344 96.972656 12.847656 C 98.84375 12.738281 100.550781 11.738281 101.921875 10.492188 C 102.667969 9.808594 103.351562 9.0625 104.21875 8.714844 C 104.734375 8.507812 105.3125 8.449219 105.898438 8.386719 C 107.9375 8.179688 110.046875 7.949219 111.921875 7 C 112.859375 6.527344 113.722656 5.875 114.375 5.03125 C 115.023438 4.1875 115.449219 3.152344 115.488281 2.078125 C 115.515625 1.246094 115.3125 0.425781 114.984375 -0.316406 C 114.652344 -1.0625 114.199219 -1.738281 113.707031 -2.371094 C 112.726562 -3.636719 111.585938 -4.753906 110.828125 -6.105469 C 109.957031 -7.65625 109.609375 -9.472656 109.058594 -11.226562 C 108.78125 -12.105469 108.449219 -12.976562 107.96875 -13.777344 C 107.492188 -14.578125 106.863281 -15.304688 106.066406 -15.816406 C 104.9375 -16.539062 103.542969 -16.769531 102.222656 -16.589844 C 100.902344 -16.410156 99.660156 -15.832031 98.585938 -15.054688 C 96.785156 -13.753906 95.476562 -11.933594 94.070312 -10.277344 C 92.664062 -8.625 91.042969 -7.058594 89.023438 -6.449219 C 87.503906 -5.992188 85.820312 -6.113281 84.203125 -5.65625 C 83.394531 -5.425781 82.601562 -5.039062 82.003906 -4.410156 C 81.851562 -4.253906 81.71875 -4.085938 81.597656 -3.902344 Z M 81.917969 -3.695312 C 82.023438 -3.855469 82.144531 -4.007812 82.277344 -4.148438 C 82.8125 -4.707031 83.542969 -5.066406 84.304688 -5.285156 C 85.832031 -5.71875 87.519531 -5.59375 89.128906 -6.082031 C 91.269531 -6.726562 92.9375 -8.359375 94.359375 -10.03125 C 95.78125 -11.699219 97.078125 -13.488281 98.808594 -14.746094 C 99.839844 -15.492188 101.027344 -16.039062 102.269531 -16.207031 C 103.511719 -16.378906 104.816406 -16.15625 105.855469 -15.488281 C 106.589844 -15.019531 107.183594 -14.335938 107.640625 -13.574219 C 108.097656 -12.8125 108.421875 -11.96875 108.691406 -11.109375 C 109.234375 -9.382812 109.582031 -7.535156 110.492188 -5.914062 C 111.285156 -4.5 112.445312 -3.367188 113.402344 -2.132812 C 113.882812 -1.515625 114.320312 -0.863281 114.632812 -0.160156 C 114.945312 0.546875 115.128906 1.308594 115.105469 2.070312 C 115.070312 3.050781 114.679688 4.011719 114.070312 4.796875 C 113.464844 5.585938 112.648438 6.207031 111.75 6.65625 C 109.960938 7.5625 107.898438 7.796875 105.863281 8.003906 C 105.277344 8.0625 104.664062 8.125 104.082031 8.359375 C 103.101562 8.75 102.394531 9.542969 101.664062 10.207031 C 100.335938 11.414062 98.699219 12.359375 96.953125 12.460938 C 96.082031 12.511719 95.191406 12.34375 94.433594 11.933594 C 93.675781 11.523438 93.050781 10.863281 92.734375 10.066406 C 92.484375 9.433594 92.421875 8.726562 92.460938 8.023438 C 92.5 7.320312 92.628906 6.613281 92.734375 5.894531 C 92.839844 5.171875 92.921875 4.433594 92.847656 3.6875 C 92.773438 2.945312 92.53125 2.191406 92.046875 1.601562 C 91.703125 1.183594 91.257812 0.871094 90.773438 0.652344 C 90.289062 0.4375 89.769531 0.320312 89.253906 0.261719 C 88.21875 0.144531 87.191406 0.273438 86.1875 0.324219 C 85.183594 0.378906 84.167969 0.351562 83.277344 -0.015625 C 82.832031 -0.199219 82.425781 -0.46875 82.109375 -0.820312 C 81.796875 -1.171875 81.578125 -1.613281 81.519531 -2.070312 C 81.472656 -2.441406 81.523438 -2.828125 81.660156 -3.183594 C 81.726562 -3.363281 81.816406 -3.53125 81.917969 -3.695312 Z M 81.917969 -3.695312 " fill-opacity="1" fill-rule="nonzero"/></g></g></g><g clip-path="url(#01294b604e)"><g clip-path="url(#39729bded3)"><g clip-path="url(#31dbcbceb1)"><path fill="#a1bdb6" d="M 298.980469 53.566406 C 294.480469 52.558594 289.808594 52.519531 285.285156 51.640625 C 282.21875 51.042969 279.160156 50.03125 276.683594 48.113281 C 274.210938 46.195312 272.386719 43.261719 272.34375 40.125 C 272.277344 35.128906 276.53125 31.144531 280.925781 28.792969 C 285.316406 26.425781 290.289062 24.898438 293.863281 21.425781 C 298.648438 16.777344 299.902344 8.886719 296.789062 2.972656 C 295.664062 0.839844 294.023438 -1.09375 293.546875 -3.457031 C 292.59375 -8.246094 297.214844 -12.804688 302.074219 -13.21875 C 306.933594 -13.628906 311.558594 -10.949219 315.121094 -7.625 C 318.679688 -4.296875 321.542969 -0.253906 325.160156 3.007812 C 328.78125 6.285156 333.511719 8.832031 338.34375 8.203125 C 342.429688 7.667969 345.933594 4.96875 349.964844 4.125 C 355.464844 2.960938 361.566406 5.75 364.296875 10.664062 C 367.027344 15.578125 366.175781 22.238281 362.289062 26.3125 C 358.671875 30.105469 352.972656 31.597656 349.867188 35.828125 C 347.0625 39.640625 347.03125 44.957031 348.550781 49.457031 C 350.066406 53.957031 352.910156 57.839844 355.601562 61.75 C 358.289062 65.660156 360.898438 69.78125 361.824219 74.4375 C 362.859375 79.648438 360.773438 86.148438 355.640625 87.472656 C 352.140625 88.378906 348.390625 86.484375 346.117188 83.667969 C 343.859375 80.851562 342.804688 77.261719 341.980469 73.730469 C 340.921875 69.160156 339.402344 63.65625 334.875 62.453125 C 331.5 61.542969 328.035156 63.648438 325.617188 66.175781 C 323.042969 68.859375 321.09375 72.101562 318.691406 74.9375 C 316.289062 77.777344 313.207031 80.324219 309.53125 80.910156 C 305.859375 81.480469 301.609375 79.449219 300.734375 75.820312 C 299.300781 69.855469 306.988281 67.382812 308.855469 63.003906 C 311.210938 57.46875 302.921875 54.457031 298.980469 53.566406 Z M 298.980469 53.566406 " fill-opacity="1" fill-rule="nonzero"/></g></g></g><g clip-path="url(#58f269ed69)"><g clip-path="url(#e304e2c3c3)"><g clip-path="url(#3241fc939f)"><path fill="#a1bdb6" d="M 400.34375 54.351562 C 396.414062 53.464844 392.328125 53.433594 388.378906 52.664062 C 385.699219 52.136719 383.023438 51.25 380.859375 49.570312 C 378.699219 47.890625 377.101562 45.324219 377.066406 42.578125 C 377.007812 38.199219 380.726562 34.710938 384.566406 32.648438 C 388.402344 30.578125 392.75 29.242188 395.871094 26.195312 C 400.054688 22.125 401.148438 15.214844 398.429688 10.035156 C 397.445312 8.164062 396.011719 6.472656 395.597656 4.402344 C 394.761719 0.207031 398.796875 -3.785156 403.046875 -4.144531 C 407.292969 -4.507812 411.335938 -2.160156 414.445312 0.753906 C 417.558594 3.667969 420.058594 7.207031 423.222656 10.066406 C 426.386719 12.9375 430.519531 15.167969 434.742188 14.617188 C 438.3125 14.148438 441.375 11.785156 444.898438 11.046875 C 449.703125 10.027344 455.035156 12.46875 457.421875 16.773438 C 459.808594 21.078125 459.066406 26.914062 455.667969 30.480469 C 452.507812 33.800781 447.527344 35.109375 444.816406 38.8125 C 442.363281 42.15625 442.335938 46.808594 443.664062 50.75 C 444.988281 54.695312 447.476562 58.09375 449.824219 61.519531 C 452.175781 64.945312 454.457031 68.554688 455.265625 72.632812 C 456.167969 77.195312 454.347656 82.890625 449.863281 84.050781 C 446.804688 84.847656 443.523438 83.1875 441.539062 80.71875 C 439.5625 78.25 438.644531 75.109375 437.925781 72.015625 C 437 68.011719 435.667969 63.191406 431.714844 62.136719 C 428.765625 61.339844 425.738281 63.183594 423.621094 65.394531 C 421.371094 67.746094 419.671875 70.585938 417.570312 73.070312 C 415.472656 75.554688 412.777344 77.789062 409.566406 78.300781 C 406.355469 78.800781 402.640625 77.023438 401.878906 73.84375 C 400.625 68.617188 407.34375 66.453125 408.976562 62.617188 C 411.035156 57.769531 403.789062 55.128906 400.34375 54.351562 Z M 400.34375 54.351562 " fill-opacity="1" fill-rule="nonzero"/></g></g></g><g clip-path="url(#86029cfc95)"><g clip-path="url(#1719af2f65)"><g clip-path="url(#58f608130a)"><path fill="#e4c4bf" d="M 256.25 6.121094 L 310.648438 1.867188 L 314.207031 47.382812 L 259.808594 51.636719 Z M 256.25 6.121094 " fill-opacity="1" fill-rule="nonzero"/></g></g></g><g clip-path="url(#c6a76b1c8f)"><path fill="#faf5ef" d="M 258.488281 1.527344 C 258.488281 2.40625 257.757812 3.117188 256.855469 3.117188 C 255.953125 3.117188 255.21875 2.40625 255.21875 1.527344 C 255.21875 0.652344 255.953125 -0.0585938 256.855469 -0.0585938 C 257.757812 -0.0585938 258.488281 0.652344 258.488281 1.527344 Z M 260.832031 0.523438 C 261.164062 0.523438 261.433594 0.261719 261.433594 -0.0585938 C 261.433594 -0.382812 261.164062 -0.644531 260.832031 -0.644531 C 260.5 -0.644531 260.234375 -0.382812 260.234375 -0.0585938 C 260.234375 0.261719 260.5 0.523438 260.832031 0.523438 Z M 269.660156 4.300781 C 269.328125 4.300781 269.058594 4.5625 269.058594 4.882812 C 269.058594 5.207031 269.328125 5.46875 269.660156 5.46875 C 269.988281 5.46875 270.257812 5.207031 270.257812 4.882812 C 270.257812 4.5625 269.988281 4.300781 269.660156 4.300781 Z M 268.457031 0.617188 C 268.125 0.617188 267.855469 0.878906 267.855469 1.199219 C 267.855469 1.523438 268.125 1.78125 268.457031 1.78125 C 268.789062 1.78125 269.058594 1.523438 269.058594 1.199219 C 269.058594 0.878906 268.789062 0.617188 268.457031 0.617188 Z M 267.058594 5.886719 C 267.058594 5.5625 266.789062 5.300781 266.457031 5.300781 C 266.125 5.300781 265.855469 5.5625 265.855469 5.886719 C 265.855469 6.207031 266.125 6.46875 266.457031 6.46875 C 266.789062 6.46875 267.058594 6.207031 267.058594 5.886719 Z M 259.496094 9.53125 C 259.089844 9.925781 259.089844 10.566406 259.496094 10.960938 C 259.902344 11.355469 260.5625 11.355469 260.96875 10.960938 C 261.375 10.566406 261.375 9.925781 260.96875 9.53125 C 260.5625 9.136719 259.902344 9.136719 259.496094 9.53125 Z M 273.5625 4.707031 C 273.152344 4.3125 272.496094 4.3125 272.089844 4.707031 C 271.683594 5.101562 271.683594 5.742188 272.089844 6.136719 C 272.496094 6.53125 273.152344 6.53125 273.5625 6.136719 C 273.96875 5.742188 273.96875 5.101562 273.5625 4.707031 Z M 261.550781 2.992188 C 261.078125 2.992188 260.695312 3.363281 260.695312 3.824219 C 260.695312 4.285156 261.078125 4.65625 261.550781 4.65625 C 262.027344 4.65625 262.410156 4.285156 262.410156 3.824219 C 262.410156 3.363281 262.027344 2.992188 261.550781 2.992188 Z M 261.242188 -4.222656 C 261.714844 -4.222656 262.097656 -4.597656 262.097656 -5.054688 C 262.097656 -5.515625 261.714844 -5.886719 261.242188 -5.886719 C 260.769531 -5.886719 260.386719 -5.515625 260.386719 -5.054688 C 260.386719 -4.597656 260.769531 -4.222656 261.242188 -4.222656 Z M 271.511719 -2.730469 C 271.511719 -3.191406 271.128906 -3.5625 270.65625 -3.5625 C 270.179688 -3.5625 269.796875 -3.191406 269.796875 -2.730469 C 269.796875 -2.273438 270.179688 -1.898438 270.65625 -1.898438 C 271.128906 -1.898438 271.511719 -2.273438 271.511719 -2.730469 Z M 267.3125 -2.402344 C 267.3125 -2.863281 266.929688 -3.234375 266.457031 -3.234375 C 265.984375 -3.234375 265.601562 -2.863281 265.601562 -2.402344 C 265.601562 -1.945312 265.984375 -1.570312 266.457031 -1.570312 C 266.929688 -1.570312 267.3125 -1.945312 267.3125 -2.402344 Z M 265.019531 0.542969 C 264.832031 0.542969 264.683594 0.691406 264.683594 0.871094 C 264.683594 1.050781 264.832031 1.199219 265.019531 1.199219 C 265.207031 1.199219 265.359375 1.050781 265.359375 0.871094 C 265.359375 0.691406 265.207031 0.542969 265.019531 0.542969 Z M 263.660156 7.210938 C 263.476562 7.179688 263.304688 7.296875 263.269531 7.476562 C 263.238281 7.65625 263.363281 7.828125 263.546875 7.855469 C 263.730469 7.886719 263.90625 7.769531 263.9375 7.589844 C 263.96875 7.410156 263.847656 7.242188 263.660156 7.210938 Z M 263.457031 -1.898438 C 263.457031 -2.082031 263.304688 -2.226562 263.117188 -2.226562 C 262.929688 -2.226562 262.777344 -2.082031 262.777344 -1.898438 C 262.777344 -1.71875 262.929688 -1.570312 263.117188 -1.570312 C 263.304688 -1.570312 263.457031 -1.71875 263.457031 -1.898438 Z M 257.007812 -1.898438 C 257.195312 -1.898438 257.347656 -2.046875 257.347656 -2.226562 C 257.347656 -2.410156 257.195312 -2.558594 257.007812 -2.558594 C 256.820312 -2.558594 256.667969 -2.410156 256.667969 -2.226562 C 256.667969 -2.046875 256.820312 -1.898438 257.007812 -1.898438 Z M 266.203125 -5.054688 C 266.386719 -5.054688 266.539062 -5.203125 266.539062 -5.386719 C 266.539062 -5.566406 266.386719 -5.714844 266.203125 -5.714844 C 266.015625 -5.714844 265.863281 -5.566406 265.863281 -5.386719 C 265.863281 -5.203125 266.015625 -5.054688 266.203125 -5.054688 Z M 267.109375 9.292969 C 266.753906 9.234375 266.414062 9.464844 266.351562 9.8125 C 266.289062 10.160156 266.527344 10.492188 266.886719 10.550781 C 267.246094 10.613281 267.585938 10.378906 267.644531 10.03125 C 267.707031 9.683594 267.46875 9.355469 267.109375 9.292969 Z M 259.320312 6.109375 C 259.253906 5.796875 258.941406 5.589844 258.613281 5.652344 C 258.289062 5.714844 258.078125 6.023438 258.140625 6.339844 C 258.207031 6.65625 258.523438 6.859375 258.847656 6.796875 C 259.171875 6.734375 259.386719 6.425781 259.320312 6.109375 Z M 271.445312 9.121094 C 271.257812 9.121094 271.105469 9.269531 271.105469 9.453125 C 271.105469 9.632812 271.257812 9.78125 271.445312 9.78125 C 271.632812 9.78125 271.785156 9.632812 271.785156 9.453125 C 271.785156 9.269531 271.632812 9.121094 271.445312 9.121094 Z M 271.445312 9.121094 " fill-opacity="1" fill-rule="nonzero"/></g><g clip-path="url(#8f202bcb0c)"><path fill="#faf5ef" d="M 343.667969 35.527344 C 343.664062 35.351562 343.640625 35.179688 343.601562 35.007812 C 343.515625 34.664062 343.355469 34.339844 343.117188 34.074219 C 342.816406 33.742188 342.414062 33.523438 341.988281 33.417969 C 341.5625 33.3125 341.117188 33.320312 340.695312 33.410156 C 339.855469 33.582031 339.121094 34.050781 338.460938 34.546875 C 337.796875 35.039062 337.171875 35.574219 336.464844 35.941406 C 336.113281 36.125 335.738281 36.265625 335.355469 36.335938 C 334.96875 36.402344 334.570312 36.394531 334.203125 36.289062 C 333.683594 36.136719 333.222656 35.789062 332.859375 35.363281 C 332.5 34.9375 332.222656 34.4375 331.96875 33.917969 C 331.714844 33.402344 331.476562 32.867188 331.164062 32.363281 C 330.851562 31.855469 330.464844 31.375 329.953125 31.035156 C 329.308594 30.609375 328.515625 30.4375 327.75 30.515625 C 326.988281 30.589844 326.261719 30.902344 325.65625 31.359375 C 324.445312 32.273438 323.753906 33.703125 323.402344 35.144531 C 323.210938 35.933594 323.09375 36.734375 322.667969 37.351562 C 322.414062 37.722656 322.054688 38.023438 321.6875 38.324219 C 320.410156 39.378906 319.09375 40.480469 318.265625 41.949219 C 317.851562 42.6875 317.570312 43.507812 317.515625 44.355469 C 317.464844 45.207031 317.652344 46.085938 318.117188 46.8125 C 318.480469 47.375 318.992188 47.824219 319.554688 48.171875 C 320.117188 48.515625 320.734375 48.757812 321.355469 48.957031 C 322.59375 49.351562 323.871094 49.578125 325 50.128906 C 326.296875 50.765625 327.359375 51.8125 328.535156 52.722656 C 329.121094 53.179688 329.746094 53.605469 330.433594 53.921875 C 331.125 54.234375 331.878906 54.433594 332.648438 54.414062 C 333.738281 54.382812 334.785156 53.910156 335.589844 53.199219 C 336.398438 52.484375 336.96875 51.542969 337.335938 50.546875 C 337.953125 48.875 338 47.082031 338.191406 45.355469 C 338.382812 43.628906 338.753906 41.863281 339.835938 40.550781 C 340.648438 39.566406 341.839844 38.886719 342.714844 37.859375 C 343.15625 37.34375 343.511719 36.730469 343.628906 36.046875 C 343.660156 35.875 343.671875 35.699219 343.667969 35.527344 Z M 343.355469 35.535156 C 343.359375 35.6875 343.347656 35.84375 343.324219 35.996094 C 343.21875 36.605469 342.894531 37.171875 342.480469 37.660156 C 341.648438 38.632812 340.457031 39.308594 339.597656 40.355469 C 338.449219 41.742188 338.074219 43.574219 337.882812 45.320312 C 337.6875 47.066406 337.636719 48.832031 337.046875 50.441406 C 336.691406 51.398438 336.144531 52.292969 335.382812 52.964844 C 334.625 53.636719 333.644531 54.078125 332.640625 54.105469 C 331.929688 54.121094 331.21875 53.9375 330.566406 53.640625 C 329.910156 53.339844 329.304688 52.929688 328.726562 52.480469 C 327.570312 51.582031 326.492188 50.515625 325.136719 49.851562 C 323.957031 49.273438 322.660156 49.046875 321.449219 48.660156 C 320.84375 48.46875 320.25 48.234375 319.71875 47.90625 C 319.1875 47.582031 318.710938 47.160156 318.378906 46.644531 C 317.957031 45.980469 317.777344 45.167969 317.828125 44.375 C 317.875 43.582031 318.140625 42.804688 318.539062 42.101562 C 319.332031 40.699219 320.609375 39.617188 321.882812 38.5625 C 322.253906 38.261719 322.636719 37.945312 322.925781 37.527344 C 323.40625 36.828125 323.515625 35.984375 323.703125 35.21875 C 324.046875 33.820312 324.714844 32.460938 325.84375 31.605469 C 326.410156 31.179688 327.082031 30.890625 327.78125 30.824219 C 328.476562 30.753906 329.203125 30.910156 329.78125 31.292969 C 330.238281 31.597656 330.601562 32.039062 330.898438 32.523438 C 331.195312 33.003906 331.429688 33.53125 331.691406 34.054688 C 331.949219 34.578125 332.234375 35.105469 332.625 35.5625 C 333.015625 36.023438 333.519531 36.414062 334.117188 36.585938 C 334.539062 36.707031 334.984375 36.714844 335.410156 36.640625 C 335.832031 36.5625 336.234375 36.410156 336.609375 36.214844 C 337.359375 35.824219 337.992188 35.28125 338.644531 34.792969 C 339.296875 34.308594 339.992188 33.867188 340.757812 33.710938 C 341.140625 33.632812 341.539062 33.628906 341.914062 33.71875 C 342.285156 33.808594 342.632812 34.003906 342.882812 34.28125 C 343.085938 34.503906 343.226562 34.785156 343.296875 35.078125 C 343.332031 35.226562 343.351562 35.378906 343.355469 35.535156 Z M 343.355469 35.535156 " fill-opacity="1" fill-rule="nonzero"/></g><g clip-path="url(#38c6460f38)"><g clip-path="url(#6214226a07)"><g clip-path="url(#ca22d813b4)"><path fill="#faf5ef" d="M 379.992188 5.253906 C 379.972656 5.429688 379.96875 5.605469 379.984375 5.777344 C 380.015625 6.128906 380.128906 6.476562 380.324219 6.773438 C 380.574219 7.144531 380.9375 7.421875 381.34375 7.585938 C 381.75 7.753906 382.191406 7.808594 382.621094 7.785156 C 383.480469 7.738281 384.273438 7.378906 385 6.988281 C 385.730469 6.59375 386.421875 6.160156 387.175781 5.898438 C 387.550781 5.769531 387.941406 5.683594 388.332031 5.671875 C 388.722656 5.660156 389.117188 5.726562 389.464844 5.886719 C 389.957031 6.113281 390.363281 6.523438 390.65625 6.996094 C 390.953125 7.46875 391.152344 8.007812 391.328125 8.554688 C 391.503906 9.105469 391.660156 9.667969 391.894531 10.214844 C 392.128906 10.761719 392.445312 11.292969 392.898438 11.703125 C 393.472656 12.222656 394.234375 12.503906 395.003906 12.542969 C 395.769531 12.578125 396.53125 12.375 397.199219 12.011719 C 398.527344 11.285156 399.421875 9.972656 399.980469 8.597656 C 400.285156 7.847656 400.519531 7.070312 401.03125 6.519531 C 401.335938 6.191406 401.734375 5.949219 402.144531 5.703125 C 403.558594 4.847656 405.019531 3.949219 406.054688 2.617188 C 406.574219 1.949219 406.972656 1.179688 407.148438 0.34375 C 407.324219 -0.488281 407.265625 -1.382812 406.914062 -2.171875 C 406.636719 -2.78125 406.199219 -3.300781 405.691406 -3.726562 C 405.183594 -4.148438 404.609375 -4.480469 404.027344 -4.765625 C 402.859375 -5.335938 401.628906 -5.75 400.59375 -6.460938 C 399.402344 -7.277344 398.503906 -8.46875 397.476562 -9.542969 C 396.960938 -10.082031 396.40625 -10.59375 395.769531 -11.003906 C 395.136719 -11.417969 394.417969 -11.722656 393.652344 -11.816406 C 392.570312 -11.949219 391.46875 -11.632812 390.566406 -11.042969 C 389.664062 -10.457031 388.960938 -9.609375 388.449219 -8.675781 C 387.597656 -7.113281 387.289062 -5.347656 386.847656 -3.667969 C 386.40625 -1.988281 385.777344 -0.292969 384.515625 0.84375 C 383.566406 1.703125 382.292969 2.199219 381.273438 3.085938 C 380.765625 3.53125 380.320312 4.085938 380.105469 4.746094 C 380.050781 4.910156 380.015625 5.082031 379.992188 5.253906 Z M 380.300781 5.292969 C 380.320312 5.140625 380.355469 4.988281 380.402344 4.84375 C 380.59375 4.253906 381 3.738281 381.480469 3.320312 C 382.445312 2.476562 383.722656 1.980469 384.726562 1.074219 C 386.0625 -0.132812 386.703125 -1.890625 387.148438 -3.589844 C 387.59375 -5.285156 387.902344 -7.023438 388.722656 -8.53125 C 389.214844 -9.425781 389.886719 -10.230469 390.738281 -10.785156 C 391.585938 -11.339844 392.617188 -11.628906 393.617188 -11.507812 C 394.320312 -11.425781 394.996094 -11.136719 395.601562 -10.746094 C 396.207031 -10.355469 396.746094 -9.859375 397.25 -9.332031 C 398.261719 -8.273438 399.171875 -7.0625 400.417969 -6.207031 C 401.5 -5.460938 402.746094 -5.046875 403.890625 -4.488281 C 404.460938 -4.207031 405.011719 -3.890625 405.492188 -3.488281 C 405.96875 -3.089844 406.378906 -2.601562 406.628906 -2.046875 C 406.953125 -1.328125 407.007812 -0.496094 406.84375 0.28125 C 406.679688 1.058594 406.304688 1.789062 405.808594 2.425781 C 404.820312 3.699219 403.394531 4.582031 401.980469 5.4375 C 401.574219 5.683594 401.144531 5.941406 400.800781 6.308594 C 400.226562 6.929688 399.988281 7.75 399.691406 8.480469 C 399.148438 9.8125 398.289062 11.0625 397.046875 11.742188 C 396.425781 12.078125 395.71875 12.265625 395.019531 12.234375 C 394.316406 12.199219 393.625 11.9375 393.109375 11.472656 C 392.699219 11.105469 392.40625 10.613281 392.183594 10.09375 C 391.960938 9.574219 391.804688 9.019531 391.625 8.460938 C 391.445312 7.90625 391.242188 7.34375 390.921875 6.832031 C 390.601562 6.320312 390.160156 5.863281 389.59375 5.605469 C 389.195312 5.421875 388.753906 5.351562 388.324219 5.363281 C 387.894531 5.375 387.472656 5.46875 387.074219 5.605469 C 386.273438 5.882812 385.566406 6.328125 384.851562 6.714844 C 384.136719 7.101562 383.386719 7.433594 382.601562 7.476562 C 382.210938 7.496094 381.816406 7.445312 381.464844 7.300781 C 381.109375 7.15625 380.792969 6.914062 380.585938 6.601562 C 380.417969 6.351562 380.320312 6.054688 380.292969 5.75 C 380.277344 5.601562 380.28125 5.445312 380.300781 5.292969 Z M 380.300781 5.292969 " fill-opacity="1" fill-rule="nonzero"/></g></g></g><g clip-path="url(#c6931aa1ed)"><g clip-path="url(#9fab84a856)"><g clip-path="url(#8598a12262)"><path fill="#5a7a80" d="M 312.539062 33.738281 L 282.8125 12.148438 L 300.878906 -12.722656 L 330.605469 8.867188 Z M 312.539062 33.738281 " fill-opacity="1" fill-rule="nonzero"/></g></g></g><g clip-path="url(#a57ab753f5)"><g clip-path="url(#c774b0a583)"><g clip-path="url(#2eb87121c4)"><path fill="#5a7a80" d="M 241.4375 42.644531 C 241.320312 42.828125 241.21875 43.023438 241.140625 43.230469 C 240.984375 43.640625 240.921875 44.089844 240.976562 44.527344 C 241.050781 45.078125 241.304688 45.582031 241.664062 45.984375 C 242.023438 46.386719 242.480469 46.6875 242.96875 46.886719 C 243.945312 47.289062 245.019531 47.3125 246.039062 47.257812 C 247.0625 47.203125 248.070312 47.082031 249.046875 47.191406 C 249.535156 47.246094 250.011719 47.355469 250.453125 47.554688 C 250.890625 47.75 251.289062 48.03125 251.589844 48.394531 C 252.011719 48.910156 252.234375 49.589844 252.304688 50.277344 C 252.371094 50.96875 252.296875 51.679688 252.195312 52.386719 C 252.089844 53.097656 251.957031 53.816406 251.917969 54.554688 C 251.878906 55.292969 251.9375 56.054688 252.214844 56.761719 C 252.570312 57.648438 253.257812 58.371094 254.089844 58.820312 C 254.917969 59.269531 255.875 59.449219 256.808594 59.394531 C 258.679688 59.285156 260.390625 58.285156 261.761719 57.039062 C 262.507812 56.359375 263.191406 55.609375 264.058594 55.261719 C 264.574219 55.054688 265.152344 54.996094 265.738281 54.933594 C 267.773438 54.726562 269.886719 54.496094 271.761719 53.550781 C 272.699219 53.074219 273.5625 52.421875 274.214844 51.578125 C 274.863281 50.734375 275.289062 49.699219 275.328125 48.628906 C 275.355469 47.792969 275.152344 46.976562 274.820312 46.230469 C 274.492188 45.484375 274.039062 44.808594 273.546875 44.175781 C 272.566406 42.914062 271.425781 41.792969 270.667969 40.445312 C 269.796875 38.890625 269.449219 37.074219 268.898438 35.320312 C 268.621094 34.441406 268.289062 33.570312 267.808594 32.769531 C 267.332031 31.96875 266.699219 31.242188 265.90625 30.730469 C 264.777344 30.007812 263.382812 29.777344 262.0625 29.957031 C 260.742188 30.136719 259.5 30.714844 258.425781 31.492188 C 256.625 32.792969 255.316406 34.613281 253.910156 36.269531 C 252.503906 37.921875 250.882812 39.488281 248.859375 40.097656 C 247.34375 40.554688 245.660156 40.433594 244.042969 40.894531 C 243.234375 41.121094 242.441406 41.507812 241.84375 42.136719 C 241.691406 42.292969 241.554688 42.464844 241.4375 42.644531 Z M 241.757812 42.851562 C 241.863281 42.691406 241.984375 42.539062 242.117188 42.402344 C 242.652344 41.839844 243.382812 41.480469 244.144531 41.261719 C 245.671875 40.832031 247.359375 40.953125 248.96875 40.46875 C 251.109375 39.824219 252.777344 38.1875 254.199219 36.515625 C 255.621094 34.847656 256.914062 33.058594 258.648438 31.804688 C 259.679688 31.054688 260.867188 30.507812 262.109375 30.339844 C 263.351562 30.167969 264.65625 30.390625 265.695312 31.058594 C 266.429688 31.527344 267.023438 32.210938 267.480469 32.972656 C 267.9375 33.734375 268.261719 34.578125 268.53125 35.441406 C 269.074219 37.164062 269.421875 39.011719 270.332031 40.636719 C 271.125 42.046875 272.28125 43.179688 273.242188 44.414062 C 273.722656 45.035156 274.160156 45.683594 274.472656 46.390625 C 274.78125 47.09375 274.96875 47.855469 274.945312 48.617188 C 274.910156 49.597656 274.515625 50.558594 273.910156 51.34375 C 273.304688 52.132812 272.484375 52.753906 271.589844 53.207031 C 269.796875 54.109375 267.738281 54.34375 265.703125 54.550781 C 265.117188 54.613281 264.503906 54.671875 263.921875 54.90625 C 262.941406 55.296875 262.234375 56.089844 261.503906 56.753906 C 260.175781 57.960938 258.539062 58.910156 256.792969 59.011719 C 255.917969 59.058594 255.03125 58.894531 254.273438 58.480469 C 253.515625 58.070312 252.890625 57.410156 252.574219 56.613281 C 252.320312 55.980469 252.261719 55.273438 252.300781 54.570312 C 252.335938 53.867188 252.46875 53.160156 252.574219 52.441406 C 252.679688 51.71875 252.761719 50.980469 252.6875 50.234375 C 252.609375 49.492188 252.371094 48.738281 251.886719 48.148438 C 251.542969 47.730469 251.09375 47.417969 250.609375 47.199219 C 250.128906 46.984375 249.609375 46.867188 249.09375 46.808594 C 248.054688 46.695312 247.027344 46.820312 246.023438 46.871094 C 245.023438 46.925781 244.007812 46.898438 243.117188 46.53125 C 242.671875 46.347656 242.265625 46.078125 241.949219 45.726562 C 241.636719 45.375 241.417969 44.9375 241.359375 44.476562 C 241.3125 44.105469 241.363281 43.71875 241.5 43.363281 C 241.566406 43.1875 241.65625 43.015625 241.757812 42.855469 Z M 241.757812 42.851562 " fill-opacity="1" fill-rule="nonzero"/></g></g></g><g clip-path="url(#577a101c05)"><g clip-path="url(#4a89f8e018)"><g clip-path="url(#cbe7241086)"><path fill="#faf5ef" d="M 360.679688 27.988281 C 361.53125 28.1875 362.054688 29.0625 361.847656 29.941406 C 361.640625 30.820312 360.78125 31.371094 359.925781 31.167969 C 359.074219 30.96875 358.550781 30.089844 358.757812 29.210938 C 358.964844 28.335938 359.824219 27.785156 360.679688 27.988281 Z M 360.238281 25.476562 C 360.316406 25.152344 360.125 24.832031 359.808594 24.757812 C 359.496094 24.683594 359.179688 24.882812 359.105469 25.207031 C 359.027344 25.53125 359.21875 25.851562 359.535156 25.925781 C 359.847656 26 360.164062 25.796875 360.238281 25.476562 Z M 365.945312 17.753906 C 365.871094 18.078125 366.0625 18.398438 366.375 18.472656 C 366.6875 18.546875 367.003906 18.347656 367.082031 18.023438 C 367.15625 17.699219 366.964844 17.378906 366.652344 17.304688 C 366.339844 17.230469 366.023438 17.433594 365.945312 17.753906 Z M 362.082031 18.078125 C 362.007812 18.398438 362.199219 18.722656 362.511719 18.796875 C 362.828125 18.871094 363.140625 18.667969 363.21875 18.34375 C 363.292969 18.023438 363.101562 17.699219 362.789062 17.625 C 362.476562 17.550781 362.160156 17.753906 362.082031 18.078125 Z M 366.890625 20.648438 C 366.574219 20.574219 366.257812 20.777344 366.183594 21.101562 C 366.105469 21.421875 366.300781 21.746094 366.613281 21.820312 C 366.925781 21.894531 367.242188 21.691406 367.320312 21.367188 C 367.394531 21.046875 367.203125 20.722656 366.890625 20.648438 Z M 368.695312 28.847656 C 368.988281 29.332031 369.609375 29.480469 370.089844 29.175781 C 370.566406 28.871094 370.71875 28.230469 370.425781 27.742188 C 370.136719 27.257812 369.511719 27.109375 369.035156 27.414062 C 368.558594 27.71875 368.40625 28.359375 368.695312 28.847656 Z M 367.238281 14.050781 C 366.761719 14.355469 366.609375 14.996094 366.898438 15.484375 C 367.191406 15.96875 367.8125 16.117188 368.289062 15.8125 C 368.769531 15.507812 368.921875 14.867188 368.628906 14.378906 C 368.339844 13.894531 367.714844 13.746094 367.238281 14.050781 Z M 362.808594 25.34375 C 362.699219 25.804688 362.972656 26.261719 363.421875 26.367188 C 363.867188 26.472656 364.316406 26.1875 364.425781 25.726562 C 364.535156 25.265625 364.261719 24.804688 363.8125 24.699219 C 363.367188 24.59375 362.917969 24.882812 362.808594 25.34375 Z M 355.714844 23.984375 C 355.820312 23.523438 355.546875 23.066406 355.101562 22.960938 C 354.652344 22.855469 354.203125 23.140625 354.09375 23.601562 C 353.984375 24.0625 354.257812 24.523438 354.707031 24.628906 C 355.152344 24.734375 355.605469 24.445312 355.714844 23.984375 Z M 359.527344 14.335938 C 359.082031 14.230469 358.628906 14.515625 358.519531 14.976562 C 358.410156 15.4375 358.6875 15.894531 359.132812 16.003906 C 359.582031 16.109375 360.03125 15.820312 360.140625 15.359375 C 360.25 14.898438 359.972656 14.441406 359.527344 14.335938 Z M 358.882812 18.496094 C 358.433594 18.390625 357.984375 18.675781 357.875 19.136719 C 357.765625 19.597656 358.039062 20.054688 358.488281 20.164062 C 358.933594 20.269531 359.386719 19.980469 359.496094 19.519531 C 359.601562 19.058594 359.328125 18.601562 358.882812 18.496094 Z M 361.222656 21.402344 C 361.179688 21.585938 361.285156 21.765625 361.464844 21.808594 C 361.640625 21.851562 361.816406 21.738281 361.859375 21.554688 C 361.902344 21.375 361.796875 21.191406 361.617188 21.148438 C 361.441406 21.109375 361.265625 21.222656 361.222656 21.402344 Z M 367.398438 24.261719 C 367.324219 24.433594 367.402344 24.628906 367.566406 24.703125 C 367.734375 24.773438 367.929688 24.691406 368 24.519531 C 368.074219 24.347656 367.996094 24.152344 367.832031 24.078125 C 367.664062 24.007812 367.46875 24.085938 367.398438 24.261719 Z M 358.484375 22.367188 C 358.308594 22.324219 358.128906 22.4375 358.085938 22.621094 C 358.042969 22.800781 358.152344 22.984375 358.328125 23.023438 C 358.503906 23.066406 358.683594 22.953125 358.726562 22.769531 C 358.769531 22.589844 358.660156 22.40625 358.484375 22.367188 Z M 357 28.640625 C 357.042969 28.457031 356.9375 28.277344 356.757812 28.234375 C 356.582031 28.195312 356.40625 28.308594 356.363281 28.488281 C 356.320312 28.671875 356.425781 28.851562 356.605469 28.894531 C 356.78125 28.9375 356.957031 28.820312 357 28.640625 Z M 356.042969 18.96875 C 356.085938 18.785156 355.980469 18.605469 355.800781 18.5625 C 355.625 18.519531 355.449219 18.632812 355.40625 18.816406 C 355.363281 19 355.46875 19.179688 355.644531 19.222656 C 355.824219 19.261719 356 19.148438 356.042969 18.96875 Z M 370.21875 21.382812 C 370.078125 21.71875 370.226562 22.101562 370.550781 22.242188 C 370.875 22.382812 371.25 22.226562 371.390625 21.890625 C 371.53125 21.554688 371.382812 21.171875 371.058594 21.03125 C 370.734375 20.890625 370.359375 21.046875 370.21875 21.382812 Z M 365.328125 28.230469 C 365.007812 28.222656 364.734375 28.484375 364.722656 28.8125 C 364.707031 29.144531 364.957031 29.421875 365.28125 29.429688 C 365.601562 29.441406 365.875 29.179688 365.886719 28.847656 C 365.902344 28.519531 365.652344 28.242188 365.328125 28.230469 Z M 371.050781 17.125 C 371.007812 17.308594 371.113281 17.488281 371.292969 17.53125 C 371.46875 17.570312 371.644531 17.457031 371.6875 17.277344 C 371.730469 17.09375 371.625 16.914062 371.445312 16.871094 C 371.269531 16.828125 371.09375 16.945312 371.050781 17.125 Z M 371.050781 17.125 " fill-opacity="1" fill-rule="nonzero"/></g></g></g><g clip-path="url(#6e3efd8033)"><g clip-path="url(#79e116ec08)"><g clip-path="url(#cda1d77f0d)"><path fill="#a1bdb6" d="M 9.492188 44.289062 C 5.5625 43.402344 1.476562 43.371094 -2.476562 42.601562 C -5.152344 42.074219 -7.828125 41.1875 -9.992188 39.507812 C -12.152344 37.828125 -13.75 35.261719 -13.785156 32.515625 C -13.84375 28.136719 -10.125 24.648438 -6.289062 22.585938 C -2.449219 20.515625 1.894531 19.179688 5.019531 16.132812 C 9.203125 12.0625 10.296875 5.152344 7.574219 -0.0273438 C 6.59375 -1.898438 5.160156 -3.589844 4.742188 -5.660156 C 3.910156 -9.855469 7.945312 -13.847656 12.195312 -14.207031 C 16.441406 -14.570312 20.480469 -12.222656 23.59375 -9.308594 C 26.707031 -6.394531 29.207031 -2.855469 32.371094 0.00390625 C 35.535156 2.875 39.667969 5.105469 43.890625 4.554688 C 47.460938 4.085938 50.523438 1.722656 54.046875 0.984375 C 58.851562 -0.0351562 64.183594 2.40625 66.570312 6.710938 C 68.957031 11.015625 68.214844 16.851562 64.816406 20.417969 C 61.652344 23.738281 56.675781 25.046875 53.960938 28.75 C 51.507812 32.09375 51.484375 36.746094 52.808594 40.6875 C 54.136719 44.632812 56.621094 48.03125 58.972656 51.457031 C 61.324219 54.882812 63.601562 58.492188 64.414062 62.570312 C 65.316406 67.132812 63.496094 72.828125 59.007812 73.988281 C 55.953125 74.785156 52.671875 73.125 50.6875 70.65625 C 48.710938 68.1875 47.789062 65.046875 47.070312 61.953125 C 46.148438 57.949219 44.816406 53.128906 40.859375 52.074219 C 37.914062 51.277344 34.882812 53.121094 32.769531 55.332031 C 30.519531 57.683594 28.816406 60.523438 26.71875 63.007812 C 24.621094 65.492188 21.925781 67.726562 18.714844 68.238281 C 15.503906 68.738281 11.789062 66.960938 11.027344 63.78125 C 9.773438 58.554688 16.492188 56.390625 18.125 52.554688 C 20.179688 47.707031 12.9375 45.066406 9.492188 44.289062 Z M 9.492188 44.289062 " fill-opacity="1" fill-rule="nonzero"/></g></g></g><g clip-path="url(#1cc9c1e270)"><g clip-path="url(#10f2afeea6)"><g clip-path="url(#41c0081352)"><path fill="#5a7a80" d="M 59.289062 14.839844 L 89.402344 55.742188 L 55.175781 80.941406 L 25.0625 40.035156 Z M 59.289062 14.839844 " fill-opacity="1" fill-rule="nonzero"/></g></g></g><g clip-path="url(#88351d41e5)"><g clip-path="url(#c0c442d2ea)"><g clip-path="url(#022814ea3a)"><path fill="#e4c4bf" d="M -3.53125 -23.015625 L 50.867188 -27.269531 L 54.425781 18.246094 L 0.0273438 22.5 Z M -3.53125 -23.015625 " fill-opacity="1" fill-rule="nonzero"/></g></g></g><g clip-path="url(#3b8b6f3de8)"><g clip-path="url(#fa2412536f)"><g clip-path="url(#0ed8708db5)"><path fill="#faf5ef" d="M -6.539062 45.671875 C -6.5625 45.84375 -6.566406 46.019531 -6.550781 46.195312 C -6.515625 46.542969 -6.40625 46.890625 -6.207031 47.1875 C -5.960938 47.558594 -5.59375 47.835938 -5.1875 48 C -4.78125 48.167969 -4.339844 48.222656 -3.910156 48.199219 C -3.054688 48.152344 -2.261719 47.792969 -1.53125 47.402344 C -0.804688 47.007812 -0.109375 46.574219 0.644531 46.3125 C 1.019531 46.183594 1.410156 46.097656 1.800781 46.085938 C 2.191406 46.074219 2.582031 46.140625 2.933594 46.300781 C 3.425781 46.527344 3.828125 46.9375 4.125 47.410156 C 4.421875 47.886719 4.617188 48.421875 4.796875 48.972656 C 4.972656 49.519531 5.128906 50.082031 5.363281 50.628906 C 5.597656 51.175781 5.914062 51.707031 6.367188 52.117188 C 6.941406 52.636719 7.703125 52.917969 8.46875 52.957031 C 9.238281 52.992188 10 52.789062 10.664062 52.425781 C 11.996094 51.699219 12.890625 50.386719 13.449219 49.011719 C 13.753906 48.261719 13.984375 47.484375 14.5 46.933594 C 14.804688 46.605469 15.203125 46.363281 15.609375 46.117188 C 17.027344 45.261719 18.488281 44.363281 19.523438 43.03125 C 20.039062 42.363281 20.441406 41.59375 20.617188 40.757812 C 20.792969 39.925781 20.734375 39.03125 20.382812 38.242188 C 20.105469 37.632812 19.664062 37.113281 19.160156 36.6875 C 18.652344 36.265625 18.078125 35.933594 17.496094 35.648438 C 16.328125 35.078125 15.09375 34.664062 14.058594 33.953125 C 12.871094 33.136719 11.972656 31.945312 10.941406 30.871094 C 10.429688 30.332031 9.875 29.820312 9.238281 29.410156 C 8.605469 28.996094 7.882812 28.691406 7.121094 28.597656 C 6.039062 28.46875 4.9375 28.78125 4.03125 29.371094 C 3.132812 29.957031 2.425781 30.804688 1.917969 31.738281 C 1.066406 33.300781 0.757812 35.066406 0.316406 36.746094 C -0.125 38.425781 -0.753906 40.121094 -2.015625 41.261719 C -2.964844 42.117188 -4.238281 42.613281 -5.257812 43.503906 C -5.769531 43.949219 -6.210938 44.5 -6.425781 45.160156 C -6.480469 45.328125 -6.519531 45.496094 -6.539062 45.671875 Z M -6.230469 45.707031 C -6.210938 45.554688 -6.179688 45.402344 -6.128906 45.257812 C -5.9375 44.667969 -5.53125 44.15625 -5.050781 43.734375 C -4.089844 42.894531 -2.8125 42.394531 -1.808594 41.488281 C -0.46875 40.28125 0.167969 38.523438 0.617188 36.828125 C 1.0625 35.128906 1.371094 33.390625 2.191406 31.886719 C 2.679688 30.988281 3.355469 30.183594 4.203125 29.628906 C 5.050781 29.074219 6.085938 28.785156 7.082031 28.90625 C 7.789062 28.988281 8.464844 29.277344 9.070312 29.667969 C 9.675781 30.058594 10.210938 30.554688 10.71875 31.085938 C 11.730469 32.140625 12.640625 33.351562 13.882812 34.207031 C 14.96875 34.953125 16.214844 35.367188 17.359375 35.925781 C 17.929688 36.207031 18.480469 36.523438 18.957031 36.925781 C 19.4375 37.324219 19.847656 37.8125 20.097656 38.371094 C 20.421875 39.085938 20.476562 39.917969 20.3125 40.695312 C 20.148438 41.472656 19.769531 42.203125 19.277344 42.839844 C 18.289062 44.113281 16.863281 44.996094 15.449219 45.851562 C 15.042969 46.097656 14.613281 46.355469 14.269531 46.722656 C 13.691406 47.34375 13.457031 48.164062 13.160156 48.894531 C 12.617188 50.226562 11.757812 51.476562 10.515625 52.15625 C 9.894531 52.492188 9.1875 52.679688 8.484375 52.648438 C 7.785156 52.613281 7.089844 52.351562 6.578125 51.886719 C 6.167969 51.519531 5.871094 51.027344 5.648438 50.507812 C 5.425781 49.988281 5.269531 49.433594 5.09375 48.878906 C 4.914062 48.320312 4.707031 47.757812 4.390625 47.25 C 4.070312 46.738281 3.628906 46.277344 3.0625 46.019531 C 2.664062 45.835938 2.222656 45.765625 1.792969 45.777344 C 1.359375 45.789062 0.941406 45.882812 0.539062 46.019531 C -0.257812 46.296875 -0.964844 46.746094 -1.679688 47.128906 C -2.394531 47.515625 -3.148438 47.847656 -3.929688 47.890625 C -4.320312 47.914062 -4.714844 47.859375 -5.070312 47.714844 C -5.421875 47.570312 -5.738281 47.328125 -5.945312 47.015625 C -6.113281 46.765625 -6.210938 46.46875 -6.238281 46.167969 C -6.253906 46.015625 -6.25 45.859375 -6.230469 45.707031 Z M -6.230469 45.707031 " fill-opacity="1" fill-rule="nonzero"/></g></g></g><g clip-path="url(#80033425e5)"><path fill="#5a7a80" d="M 39.28125 4.035156 C 39.28125 4.910156 38.550781 5.621094 37.648438 5.621094 C 36.742188 5.621094 36.011719 4.910156 36.011719 4.035156 C 36.011719 3.15625 36.742188 2.445312 37.648438 2.445312 C 38.550781 2.445312 39.28125 3.15625 39.28125 4.035156 Z M 41.625 3.027344 C 41.957031 3.027344 42.226562 2.769531 42.226562 2.445312 C 42.226562 2.125 41.957031 1.863281 41.625 1.863281 C 41.292969 1.863281 41.023438 2.125 41.023438 2.445312 C 41.023438 2.769531 41.292969 3.027344 41.625 3.027344 Z M 50.449219 6.808594 C 50.117188 6.808594 49.851562 7.066406 49.851562 7.390625 C 49.851562 7.710938 50.117188 7.972656 50.449219 7.972656 C 50.78125 7.972656 51.050781 7.710938 51.050781 7.390625 C 51.050781 7.066406 50.78125 6.808594 50.449219 6.808594 Z M 49.25 3.121094 C 48.917969 3.121094 48.648438 3.382812 48.648438 3.703125 C 48.648438 4.027344 48.917969 4.289062 49.25 4.289062 C 49.582031 4.289062 49.851562 4.027344 49.851562 3.703125 C 49.851562 3.382812 49.582031 3.121094 49.25 3.121094 Z M 47.851562 8.390625 C 47.851562 8.070312 47.582031 7.808594 47.25 7.808594 C 46.917969 7.808594 46.648438 8.070312 46.648438 8.390625 C 46.648438 8.710938 46.917969 8.972656 47.25 8.972656 C 47.582031 8.972656 47.851562 8.710938 47.851562 8.390625 Z M 40.289062 12.035156 C 39.882812 12.429688 39.882812 13.070312 40.289062 13.464844 C 40.695312 13.859375 41.355469 13.859375 41.761719 13.464844 C 42.167969 13.070312 42.167969 12.429688 41.761719 12.035156 C 41.355469 11.640625 40.695312 11.640625 40.289062 12.035156 Z M 54.351562 7.210938 C 53.945312 6.816406 53.289062 6.816406 52.878906 7.210938 C 52.472656 7.605469 52.472656 8.246094 52.878906 8.640625 C 53.289062 9.035156 53.945312 9.035156 54.351562 8.640625 C 54.757812 8.246094 54.757812 7.605469 54.351562 7.210938 Z M 42.34375 5.496094 C 41.871094 5.496094 41.488281 5.871094 41.488281 6.328125 C 41.488281 6.789062 41.871094 7.160156 42.34375 7.160156 C 42.816406 7.160156 43.203125 6.789062 43.203125 6.328125 C 43.203125 5.871094 42.816406 5.496094 42.34375 5.496094 Z M 42.035156 -1.71875 C 42.507812 -1.71875 42.890625 -2.089844 42.890625 -2.550781 C 42.890625 -3.011719 42.507812 -3.382812 42.035156 -3.382812 C 41.5625 -3.382812 41.175781 -3.011719 41.175781 -2.550781 C 41.175781 -2.089844 41.5625 -1.71875 42.035156 -1.71875 Z M 52.304688 -0.226562 C 52.304688 -0.6875 51.921875 -1.058594 51.445312 -1.058594 C 50.972656 -1.058594 50.589844 -0.6875 50.589844 -0.226562 C 50.589844 0.234375 50.972656 0.605469 51.445312 0.605469 C 51.921875 0.605469 52.304688 0.234375 52.304688 -0.226562 Z M 48.105469 0.101562 C 48.105469 -0.355469 47.722656 -0.730469 47.25 -0.730469 C 46.777344 -0.730469 46.394531 -0.355469 46.394531 0.101562 C 46.394531 0.5625 46.777344 0.933594 47.25 0.933594 C 47.722656 0.933594 48.105469 0.5625 48.105469 0.101562 Z M 45.8125 3.046875 C 45.625 3.046875 45.476562 3.195312 45.476562 3.375 C 45.476562 3.558594 45.625 3.703125 45.8125 3.703125 C 46 3.703125 46.152344 3.558594 46.152344 3.375 C 46.152344 3.195312 46 3.046875 45.8125 3.046875 Z M 44.453125 9.714844 C 44.269531 9.683594 44.09375 9.804688 44.0625 9.984375 C 44.03125 10.160156 44.15625 10.332031 44.339844 10.363281 C 44.523438 10.394531 44.699219 10.273438 44.730469 10.09375 C 44.761719 9.917969 44.636719 9.746094 44.453125 9.714844 Z M 44.246094 0.605469 C 44.246094 0.425781 44.097656 0.277344 43.910156 0.277344 C 43.722656 0.277344 43.570312 0.425781 43.570312 0.605469 C 43.570312 0.785156 43.722656 0.933594 43.910156 0.933594 C 44.097656 0.933594 44.246094 0.785156 44.246094 0.605469 Z M 37.800781 0.605469 C 37.988281 0.605469 38.136719 0.457031 38.136719 0.277344 C 38.136719 0.09375 37.988281 -0.0507812 37.800781 -0.0507812 C 37.613281 -0.0507812 37.460938 0.09375 37.460938 0.277344 C 37.460938 0.457031 37.613281 0.605469 37.800781 0.605469 Z M 46.992188 -2.550781 C 47.179688 -2.550781 47.332031 -2.699219 47.332031 -2.878906 C 47.332031 -3.0625 47.179688 -3.207031 46.992188 -3.207031 C 46.804688 -3.207031 46.65625 -3.0625 46.65625 -2.878906 C 46.65625 -2.699219 46.804688 -2.550781 46.992188 -2.550781 Z M 47.902344 11.800781 C 47.542969 11.738281 47.203125 11.972656 47.144531 12.320312 C 47.082031 12.667969 47.320312 12.996094 47.679688 13.058594 C 48.035156 13.117188 48.375 12.882812 48.4375 12.535156 C 48.5 12.191406 48.261719 11.859375 47.902344 11.800781 Z M 40.113281 8.617188 C 40.046875 8.300781 39.730469 8.09375 39.40625 8.160156 C 39.082031 8.222656 38.871094 8.527344 38.933594 8.84375 C 39 9.160156 39.316406 9.363281 39.640625 9.300781 C 39.964844 9.238281 40.175781 8.933594 40.113281 8.617188 Z M 52.238281 11.628906 C 52.050781 11.628906 51.898438 11.777344 51.898438 11.957031 C 51.898438 12.136719 52.050781 12.285156 52.238281 12.285156 C 52.425781 12.285156 52.574219 12.136719 52.574219 11.957031 C 52.574219 11.777344 52.425781 11.628906 52.238281 11.628906 Z M 52.238281 11.628906 " fill-opacity="1" fill-rule="nonzero"/></g><g clip-path="url(#55cac2f00f)"><g clip-path="url(#d19a2b0470)"><g clip-path="url(#5b530f14b0)"><path fill="#e4c4bf" d="M 412.742188 71.222656 L 359.796875 58.035156 L 370.828125 13.734375 L 423.773438 26.921875 Z M 412.742188 71.222656 " fill-opacity="1" fill-rule="nonzero"/></g></g></g><g clip-path="url(#2ac5794520)"><g clip-path="url(#4f0d4c2b5f)"><g clip-path="url(#f2b046834d)"><path fill="#5a7a80" d="M 459.929688 41.128906 L 430.203125 19.535156 L 448.269531 -5.335938 L 477.996094 16.257812 Z M 459.929688 41.128906 " fill-opacity="1" fill-rule="nonzero"/></g></g></g></svg>